<?xml version="1.0" standalone="no"?>
<!DOCTYPE svg PUBLIC "-//W3C//DTD SVG 1.1//EN" "http://www.w3.org/Graphics/SVG/1.1/DTD/svg11.dtd" >
<svg xmlns="http://www.w3.org/2000/svg">
<metadata></metadata>
<defs>
<font id="danger_mouseregular" horiz-adv-x="1904" >
<font-face units-per-em="2048" ascent="1638" descent="-410" />
<missing-glyph horiz-adv-x="1314" />
<glyph unicode="AE" horiz-adv-x="3080" d="M43 215l877 1821l766 -1590l215 1512l1138 74l-92 -480l-453 -26q-2 -2 -6 -2q0 -2 -2 -11t-2 -10q-5 -24 -15 -98t-11 -113l350 -12l-51 -360l-344 -11q-5 -16 -7 -22q-16 -73 -32 -195h30l484 25q8 0 8 -21l-70 -604l-1204 -94l45 326l-485 -316l-82 295l-369 -53 q-12 -2 -16 -6l-86 -285l-580 246zM844 719l176 24l-96 250q0 3 -4 11z" />
<glyph unicode="ae" horiz-adv-x="3524" d="M43 233q118 247 437.5 909t475.5 988l76 -158l27 56l846 -1754q0 -45 -27 -57q-293 -191 -582 -377l-39 144l-63 -41l-55 202q-150 -25 -252 -39l-92 -305l-627 267l-23 63q0 2 2 4l-81 35zM80 215q-1 -2 0.5 -4.5t3.5 -4.5l2 -1l580 -246l86 285l16 6l369 53l82 -295 l534 346q8 3 8 13l-805 1669zM881 719l75 285q5 -10 5 -11l96 -250zM1864 -47l290 2044l1227 80l-22 -111l125 8l-109 -563l-461 -29q-7 -40 -8 -55l240 -8l-15 -98l117 -4l-61 -441l-351 -10q-1 -3 -2 -13t-2 -14l344 19q18 0 29.5 -4t16 -14.5t5.5 -20t1 -27.5l-4 -41 l55 4q18 0 29 -4t15.5 -14.5t5.5 -19t1 -27.5l-74 -639l-1290 -101l16 113zM1913 -2l1204 94l70 604q0 21 -9 21l-483 -25h-31q14 111 33 195l6 22l344 11l52 360l-351 12q1 39 11 112.5t16 98.5q0 1 2 10t2 11l6 2l453 26l92 480l-1139 -74z" />
<glyph unicode="OE" horiz-adv-x="3026" d="M42 901q9 312 153 594q141 278 361 420q246 158 529 100q145 -31 259.5 -101.5t186.5 -166.5t117 -215.5t56.5 -248t-0.5 -264.5t-49.5 -265t-95.5 -249t-132 -218q-309 -329 -712 -271q-355 48 -533 320q-151 231 -140 565zM641 1135q-2 -72 14.5 -130.5t61.5 -104 t114 -58.5q54 -9 99.5 6.5t76.5 45.5t55.5 75t38 88t23.5 92q32 170 -53 268q-66 75 -165 72q-106 -4 -180 -94q-79 -98 -85 -260zM1569 -2l278 1960l1139 74l-92 -480l-453 -26q-2 -2 -6 -2q0 -2 -2 -11t-2 -10q-6 -25 -16 -98.5t-11 -112.5l351 -12l-52 -360l-344 -11 q-4 -16 -6 -22q-19 -84 -33 -195h31l483 25q9 0 9 -21l-70 -604z" />
<glyph unicode="oe" horiz-adv-x="3414" d="M41 862q0 142 31 287.5t87.5 279.5t141 251.5t186.5 204t229 136.5t263 50q79 0 156 -15q290 -62 456 -268q154 -126 229.5 -318t75.5 -417q0 -236 -81 -477.5t-220 -425.5q-269 -285 -618 -285q-70 0 -125 8q-331 47 -516 274q-148 122 -221.5 308.5t-73.5 406.5z M82 830q9 -331 179 -547q177 -224 495 -267q403 -58 712 271q74 98 132 218t95.5 249t49.5 265t0.5 264.5t-56.5 248t-117 215.5t-186.5 166.5t-259.5 101.5q-313 64 -577 -134q-215 -160 -344 -449q-130 -294 -123 -602zM682 1135q7 200 121 296q84 71 185 55 q97 -16 148 -103q56 -94 29 -234q-10 -49 -23.5 -92t-38 -88t-55.5 -75t-76.5 -45.5t-99.5 -6.5q-69 13 -114 58.5t-61.5 104t-14.5 130.5zM825 1030q-3 -77 21 -139q9 -4 35 -8h-2q55 -10 99.5 12t72.5 67t45 92t28 103q9 47 9 76q0 56 -19 102q-33 11 -57 11 q-90 0 -159 -82.5t-73 -233.5zM1753 -66l291 2044l1227 80l-23 -110l125 8l-108 -563l-461 -29q-7 -40 -8 -55l239 -9l-14 -98l117 -4l-62 -440l-350 -10q-1 -3 -2 -13t-2 -14l344 18q18 0 29 -4t15.5 -14.5t5.5 -19t1 -27.5l-4 -41l55 4q18 0 29 -4t15.5 -15t5.5 -19.5 t1 -27.5l-73 -639l-1291 -100l17 113zM1802 -20l1204 94l70 604q0 20 -8 20l-483 -24h-31q14 108 33 194l6 23l344 10l51 361l-350 12q1 39 11 113t15 98q0 1 2.5 9.5t2.5 10.5l6 2l452 27l92 479l-1138 -74z" />
<glyph unicode="&#xfb01;" horiz-adv-x="2560" d="M41 -49l328 2060l1235 82l-27 -111l129 9l-131 -553q-39 -19 -51 -19l-414 -24l-18 -4q-1 -8 -0.5 -17t2.5 -39h14q158 -5 235 -10v-63l-6 -33l109 -6v-64l-51 -336l-21 -45q-102 -2 -133 -2h-12l-191 -6q-5 -28 -16.5 -79.5t-15.5 -74.5q0 -6 -1 -21.5t-1 -21.5 l-127 -610q10 -45 -43 -65l-691 -50l17 111zM90 -4l633 45q6 1 8.5 4.5t2.5 6.5t-0.5 9.5t-0.5 8.5l127 614l2 39l39 188q157 9 225 9h13l106 2l6 16l52 330v18q-63 4 -182 8t-165 6q0 25 7.5 83t15.5 104.5t10 46.5l19 4l411 25h4l27 2l102 483l-1149 -76zM1501 -59l115 18 l-12 -121l727 115l188 2029l-113 -10l11 113l-703 -66zM1548 -10l203 1990l621 60l-183 -1948z" />
<glyph unicode="&#xfb02;" horiz-adv-x="2777" d="M41 -49l328 2060l1235 82l-27 -111l129 9l-131 -553q-39 -19 -51 -19l-414 -24l-18 -4q-1 -8 -0.5 -17t2.5 -39h14q158 -5 235 -10v-63l-6 -33l109 -6v-64l-51 -336l-21 -45q-102 -2 -133 -2h-12l-191 -6q-5 -28 -16.5 -79.5t-15.5 -74.5q0 -6 -1 -21.5t-1 -21.5 l-127 -610q10 -45 -43 -65l-691 -50l17 111zM90 -4l633 45q6 1 8.5 4.5t2.5 6.5t-0.5 9.5t-0.5 8.5l127 614l2 39l39 188q157 9 225 9h13l106 2l6 16l52 330v18q-63 4 -182 8t-165 6q0 25 7.5 83t15.5 104.5t10 46.5l19 4l411 25h4l27 2l102 483l-1149 -76zM1501 -72 l197 2124l24 21q391 24 553 34h88q-4 -68 -8 -104q4 0 11.5 1t11.5 1h88q-22 -332 -66 -748q-44 -442 -55 -591q28 1 72 4t72 4.5t40 1.5q15 0 31 2q8 0 40 1t34 1l-8 -107h6q14 0 30 2q8 0 40 1.5t34 1.5l-16 -224q-8 -108 -36 -282t-40 -174h8q-4 -1 -11 -5.5t-11 -5.5 l-1026 -61l10 111zM1536 -39l981 59l25 11q3 0 20 164.5t25 263.5q13 182 14 190q-5 0 -36 -2t-36 -2q-28 0 -175.5 -8t-149.5 -8v22q16 237 64 713t63 713h-54l-540 -35l-11 -6z" />
<glyph horiz-adv-x="0" />
<glyph horiz-adv-x="682" />
<glyph unicode=" "  horiz-adv-x="1314" />
<glyph unicode="&#x09;" horiz-adv-x="1314" />
<glyph unicode="&#xa0;" horiz-adv-x="1314" />
<glyph unicode="!" horiz-adv-x="804" d="M55 43q-29 88 38.5 179.5t195.5 137.5q127 42 238.5 12t140.5 -118q33 -87 -36.5 -179.5t-197.5 -137.5q-126 -44 -238.5 -11.5t-140.5 117.5zM121 438l158 1573l485 47l-143 -1538z" />
<glyph unicode="&#x22;" horiz-adv-x="665" d="M41 1544l70 492l227 -74l-186 -416zM328 1544l69 492l228 -74l-187 -416z" />
<glyph unicode="#" horiz-adv-x="1523" d="M41 -10l178 526h-117l29 389h219l70 209h-322l29 389h426l178 529l240 -35l-176 -494h268l180 529l240 -35l-174 -494h129l-21 -387l-246 -2l-75 -209h346l-21 -387l-463 -2l-206 -586l-199 60l178 526h-285l-206 -586zM584 905h278l70 209h-275z" />
<glyph unicode="$" horiz-adv-x="1478" d="M44 520q-7 16 1 33l188 373q11 -8 43.5 -32t52.5 -37.5t53 -33.5t58 -26.5t53.5 -9.5t53.5 10.5t45 40.5q44 62 20 143q-38 106 -54.5 188t-12 160t37.5 141t97 122t164 112q6 2 100 43l115 338l239 -35l-73 -209q4 2 22 8l62 15h2l127 -457v-10q-49 -5 -93 -14 t-94 -28.5t-84 -46.5t-52.5 -71.5t-10.5 -99.5q5 -32 36 -106t31 -75q41 -109 50 -212.5t-13 -190t-72 -158.5t-122.5 -121t-169.5 -74.5t-209 -21.5l-68 -194l-198 59l59 176q-169 66 -330 238q-2 3 -24.5 25t-29.5 38z" />
<glyph unicode="%" horiz-adv-x="1441" d="M58 1668q38 143 136 223q96 78 214 57q82 -15 136.5 -64.5t74 -116.5t17.5 -142t-27 -147.5t-66 -127.5q-109 -118 -254 -101q-157 18 -218 153q-52 117 -13 266zM227 1589q0 -52 22 -92t66 -47q55 -8 84.5 38t38.5 114q15 96 -37 140q-43 36 -94 12q-62 -29 -77 -123 q-3 -20 -3 -42zM291 -59l198 -60l732 2067l-240 34zM822 407q37 144 136 223q96 76 213 56q102 -19 160 -89.5t67 -160.5t-15 -184t-76 -164q-108 -117 -254 -100q-158 18 -218 153q-52 117 -13 266zM991 328q0 -53 22 -93t66 -47q55 -8 84.5 38t38.5 114q15 96 -37 140 q-43 36 -94 12q-62 -28 -77 -122q-3 -20 -3 -42z" />
<glyph unicode="&#x26;" horiz-adv-x="1646" d="M47 506q-11 206 75 348.5t230 200.5q-138 150 -151 358q-8 136 31 247.5t110.5 182t157.5 111t180 49.5q70 8 140.5 -1t140.5 -41.5t124.5 -84.5t91.5 -136t44 -190q12 -166 -58.5 -323.5t-181.5 -216.5l137 -166l219 237l269 -305l-226 -215l172 -203l-333 -323 l-160 174q-99 -108 -201 -160.5t-231 -64.5q-60 -5 -118.5 -4.5t-114.5 16.5t-105.5 41t-91.5 68.5t-73.5 99t-51.5 132.5t-25 169zM463 657q-53 -89 22 -170q77 -80 172 -71t136 84l-242 284q-31 -31 -88 -127zM561 1452q-3 -70 25.5 -121.5t93.5 -62.5q42 -6 75.5 9 t54.5 46.5t33.5 65t20.5 73.5q22 117 -44 178q-51 48 -121 31q-76 -18 -114 -102q-22 -51 -24 -117z" />
<glyph unicode="'" horiz-adv-x="378" d="M41 1544l70 492l227 -74l-186 -416z" />
<glyph unicode="(" horiz-adv-x="927" d="M41 881q2 34 4 102q6 106 64 283q55 172 198 420q135 238 406 518l151 -101q-362 -441 -479 -876q-26 -96 -39.5 -182.5t-13.5 -124.5v-39l4 -29q4 -29 17.5 -83.5t35.5 -124.5t64.5 -158t98.5 -177.5t143 -190t192 -188.5l-146 -84q-408 278 -594 680q-86 185 -106 355z " />
<glyph unicode=")" horiz-adv-x="927" d="M41 -70q82 69 154 146t123.5 148.5t94.5 144.5t70.5 136.5t49 122t33 104t18.5 80t10 52.5l2 17q1 15 0 42.5t-14 117.5t-39 186q-117 434 -480 876l152 101q455 -475 602 -938q61 -187 64 -283l6 -102q0 -34 -24 -128q-81 -311 -311 -582q-155 -181 -366 -325z" />
<glyph unicode="*" horiz-adv-x="1908" d="M41 1792v4q0 8 14.5 21.5t32.5 28t32.5 37t14.5 46.5q0 19 -9 56t-9 57q28 0 72 -36t75 -36q25 0 65.5 31t57.5 31h4q4 -50 19 -76.5t30.5 -29.5t29 -5.5t15.5 -9.5q-5 -12 -16 -68q-2 -6 -2 -8q0 -39 35 -111l4 -2l4 2q2 0 17.5 8.5t17.5 8.5q17 0 35 -23t31 -50t32 -50 t37 -23q27 0 58 18t46 42q45 -2 129 4t119 6q167 0 320.5 -65t267 -175t181 -264t67.5 -323q0 -303 -209 -555v-215l-23 -9q-233 -24 -331 -32h-5q-4 0 -8.5 4t-7.5 4q-42 0 -127.5 -17.5t-128.5 -17.5q-171 0 -324.5 68.5t-263 183t-173.5 270t-64 324.5q0 270 172 502v10 q0 20 -14.5 40.5t-32.5 35.5t-32.5 36t-14.5 41v9q38 51 43 59l8 16q0 2 -3.5 5.5t-4.5 3.5q-6 2 -35 2q-18 0 -46 -13.5t-44 -13.5h-4q-8 145 -103 188q-43 11 -51 25zM168 1835q0 -11 14.5 -23.5t14.5 -25.5l-2 -19q0 -1 -4.5 -9t-4.5 -9q0 -2 15 -10.5t32.5 -18.5 t20.5 -14q3 -3 6.5 -14t7.5 -20t8 -9q6 0 18.5 12.5t20.5 14.5q-3 7 -12 26t-14.5 34t-5.5 26h22v24q5 0 9 1q2 1 11 -5q1 0 2 -0.5t2.5 -1.5t2.5 -2l8 16q5 -8 9.5 -29t12.5 -33.5t25 -12.5q47 0 47 20q0 14 -20 33.5t-23 32.5q-5 15 -16 92q-32 -19 -70 -19 q-18 0 -44 18.5t-36 18.5h-4q-10 -5 -12 -16.5t1 -26t3 -16.5q-2 -9 -23.5 -15.5t-21.5 -19.5zM246 831q0 -210 104 -390t282.5 -286t387.5 -106q14 0 43 0.5t53.5 1t26.5 0.5q19 0 82 15.5t63 23.5v4q-25 -10 -63 -10q-39 0 -39 18v164q-7 0 -27 -10q-19 -13 -86 -51h-20 v102q-16 -12 -22 -15.5t-16 -7t-22 -3.5q-11 0 -19.5 7.5t-13 20.5t-7 23.5t-5 25.5t-2.5 17l-4 2q-7 0 -12 -10l-164 -205q-1 -2 -3.5 -5t-4 -5t-3.5 -4.5t-4.5 -3.5t-5.5 -1l-4 2l-204 138q-11 7 -11 12l2 4q1 2 12.5 17.5t12.5 17.5v4q0 13 -14.5 25.5t-32.5 21t-32.5 22 t-14.5 27.5t10 27l170 221q-96 2 -272 35q-7 0 -26 6.5t-19 13.5q0 13 15.5 35t18.5 31q-7 5 -35.5 9t-49 13.5t-17.5 28.5q0 1 7 15.5t11 17.5l418 641l8 16h-4h-4q-35 -13 -129 -76q-149 -103 -232 -276.5t-83 -360.5zM281 854q109 -43 303 -43q87 0 165.5 13.5t153 45 t128.5 79.5t87 123t33 169q0 126 -70.5 218t-193.5 145l-86 34l-17 -16l-495 -752zM345 1613q0 -5 3 -5t3 5t-3 5t-3 -5zM483 440q0 -4 3 -8t9 -8.5t7 -5.5q220 -170 223 -170l8 8q13 17 88.5 115.5t89.5 115.5q2 2 13.5 12.5t13.5 12.5l8 -16l43 -189h2q11 0 23 8 q10 6 188 129h8v-338l316 48l26 8q7 473 9 674v116v115l-394 -283h-4q-8 0 -16.5 46t-18.5 105t-20 81q-27 -22 -63 -59.5t-68.5 -65.5t-73.5 -45q-11 -5 -65 -17t-72 -34l-281 -351zM639 1022v10l197 307q11 19 40 -40q27 -53 27 -74q0 -64 -43 -112t-101.5 -69.5 t-119.5 -21.5zM930 1614q133 -74 216 -196t83 -265q0 -28 -5 -81t-5 -79q0 -96 18 -114l8 -9l299 213q8 2 10 2q14 0 23 -9.5t11.5 -26t3 -30t-1 -30t-1.5 -18.5q1 0 3 1t3 1q18 12 41 35l11 -27l16 -623q73 51 117.5 206.5t44.5 269.5q0 158 -63.5 304t-169 252t-251 169 t-303.5 63q-2 0 -22 0.5t-31.5 0t-28 -2.5t-26.5 -6z" />
<glyph unicode="+" horiz-adv-x="1312" d="M41 690l31 387l381 -2l57 365l381 22l-33 -389l414 -4l-23 -385l-426 -12l-47 -451l-444 -37l65 492z" />
<glyph unicode="," horiz-adv-x="432" d="M49 66q-17 47 20 97t107 75q69 25 132 7t75 -65q4 -12 4 -20h4l-2 -4q0 -17 -2 -27q-6 -23 -182 -344l-111 -2l35 215q-2 0 -4 2q-61 16 -76 66z" />
<glyph unicode="-" horiz-adv-x="1296" d="M41 664l14 389l1200 43l-6 -385z" />
<glyph unicode="." horiz-adv-x="434" d="M49 66q-17 47 20 97t107 75q69 25 132 7t75 -65q20 -48 -18 -98.5t-109 -75.5q-71 -24 -131.5 -6t-75.5 66z" />
<glyph unicode="/" horiz-adv-x="1011" d="M41 -10l690 2042l240 -35l-731 -2067z" />
<glyph unicode="0" horiz-adv-x="1800" d="M43 875q2 311 141 597q137 283 359 433q253 171 551 118q150 -28 269.5 -97t196 -163.5t125.5 -213.5t64 -248t5 -265.5t-45.5 -267t-92.5 -252t-131 -221.5q-310 -338 -729 -289q-367 41 -555 310q-159 226 -158 559zM582 989q0 -74 13.5 -138t41.5 -120t77 -93.5 t115 -49.5q68 -11 125.5 11.5t95 65t67 105.5t45.5 123.5t26 128.5q35 225 -65 359q-73 98 -187 106q-119 9 -213 -85q-130 -129 -140 -383q-1 -15 -1 -30z" />
<glyph unicode="1" horiz-adv-x="915" d="M41 1546q0 17 1 111.5t1 109.5l6 228l37 6l788 84l-77 -2089q-31 -4 -43 -4q-57 -5 -164.5 -14.5t-190 -16t-86.5 -6.5h-55l45 1581l-39 10h-223z" />
<glyph unicode="2" horiz-adv-x="1548" d="M41 352q311 353 577 594q259 232 277 377q18 148 -158 186q-172 40 -362 -88q-179 -122 -252 -192l-37 493q69 93 250 201q335 198 604 141q92 -20 174.5 -65t134.5 -93t92 -98.5t56 -77.5t18 -34q91 -180 64 -336q-27 -154 -129 -289q-132 -171 -469 -549l532 78 l-12 -539l-1348 -75z" />
<glyph unicode="3" horiz-adv-x="1648" d="M41 227v4q8 11 52 71t52 71q0 1 1 3t1 3l175 246q1 0 3.5 1t4.5 1h2q4 -2 27 -17t26 -18q99 -70 207 -94q23 -2 65 -2q72 0 119 16q75 20 130 77t55 130q9 41 -5.5 70t-49.5 45t-69.5 25t-81.5 18t-69 16v291q35 2 100.5 29t124 72.5t58.5 86.5q0 61 -50 91t-116 30 q-83 0 -166.5 -34t-179.5 -91q-4 -4 -29 -19t-33 -18h-6l-237 443l6 4q1 2 20.5 15t47 30.5t38.5 25.5q4 4 37.5 23t44.5 24q285 156 557 156q232 0 418 -102q3 -1 11 -5t16.5 -9t9.5 -5q80 -54 110 -88q24 -24 54 -71q86 -144 86 -267q0 -230 -277 -413l2 -2l-6 -5 q45 -36 64 -51.5t58 -55t57.5 -70t36 -77.5t20.5 -98q0 -229 -146 -422q-66 -89 -176 -174q-67 -48 -80 -55q-44 -25 -112 -55q-59 -24 -74 -27q-108 -27 -242 -27h-53q-7 0 -47 2t-47 2q-150 21 -183 23q-79 15 -159 59t-142 105q-3 1 -49 47z" />
<glyph unicode="4" horiz-adv-x="1521" d="M41 526l47 648l729 862l551 16l-100 -1046l213 6l-31 -455l-213 -18l-29 -514l-592 -25l41 528zM424 1006h299l53 456z" />
<glyph unicode="5" horiz-adv-x="1632" d="M41 209v14l270 379l6 6q7 0 13 -6q68 -43 104.5 -63.5t96 -40t118.5 -19.5q70 0 133 22t108.5 73.5t45.5 123.5q0 74 -45.5 111t-122.5 37q-96 0 -199 -70q-2 -1 -21.5 -15.5t-21.5 -15.5l-14 -6q-6 0 -12 6l-264 205q-2 4 -13 15.5t-12 13.5l-2 2l2 4l149 1020 q5 14 27 18l1083 70v-416l-745 -69v-271q230 88 379 88q108 0 201.5 -53.5t154.5 -138.5t96 -188t35 -205q0 -180 -69 -342.5t-186.5 -279t-281 -185t-345.5 -68.5h-45q-19 1 -79 7t-126 13.5t-78 8.5q-144 31 -258 133q-8 8 -31 30.5t-37 36.5t-14 15z" />
<glyph unicode="6" horiz-adv-x="1531" d="M41 623q0 184 65 389q2 7 23.5 70t44 131.5t31.5 97.5q44 128 166 370q119 236 198 344q2 3 4.5 5.5t7 4t6.5 1.5t8.5 1t8.5 1l643 57l-508 -792h336q50 -13 68 -17q89 -19 157.5 -73.5t109 -130t61 -160t20.5 -172.5q0 -120 -36 -243t-101 -218q-56 -86 -168 -166 q-129 -90 -253.5 -130t-281.5 -40q-159 0 -252 43q-112 50 -201.5 172t-127.5 254q-29 107 -29 201zM575 696q0 -84 51 -138t134 -54q84 0 135 54t51 138q0 83 -51 137t-135 54q-82 0 -133.5 -54t-51.5 -137z" />
<glyph unicode="7" horiz-adv-x="1392" d="M41 2009l1311 39l-482 -2056l-632 78l434 1429l-598 -35z" />
<glyph unicode="8" horiz-adv-x="1583" d="M41 565q0 111 42 204t124 192q1 1 9 8t9 8q68 56 72 59q3 2 14 10t22 16.5t17 14.5q-215 205 -215 434q0 133 78 273q17 33 90 114q11 13 27 26t37 28t30 22q166 121 408 121q123 0 242.5 -42t214.5 -116.5t153 -186t58 -239.5q0 -249 -226 -438v-6q133 -89 214 -220 t81 -282q0 -114 -43.5 -215t-117 -175t-169.5 -128t-203 -81t-214 -27t-215 27t-204.5 81t-171.5 127.5t-119 175t-44 215.5zM598 662q0 -85 54.5 -138t142.5 -53q83 0 136.5 53.5t53.5 137.5q0 85 -53.5 138.5t-136.5 53.5q-88 0 -142.5 -53.5t-54.5 -138.5zM653 1464 q0 -79 48 -130.5t126 -51.5q80 0 127 51t47 131t-47 132.5t-127 52.5q-78 0 -126 -52.5t-48 -132.5z" />
<glyph unicode="9" horiz-adv-x="1531" d="M41 1298q0 120 36 243t101 218q56 86 168 166q129 90 253.5 130t281.5 40q159 0 252 -43q112 -50 201.5 -172t127.5 -254q29 -107 29 -201q0 -181 -66 -389q-2 -7 -23 -70t-43.5 -131.5t-31.5 -97.5q-44 -128 -166 -370q-119 -236 -198 -344q-2 -3 -4.5 -5.5t-7 -4 t-6.5 -1.5t-8.5 -1t-8.5 -1l-643 -57l508 792h-336q-50 13 -68 17q-89 19 -157.5 73.5t-109 130t-61 160t-20.5 172.5zM586 1352q0 -83 51 -137t135 -54q82 0 133 54t51 137q0 84 -51 138t-133 54q-84 0 -135 -54t-51 -138z" />
<glyph unicode=":" horiz-adv-x="434" d="M49 66q-17 47 20 97t107 75q69 25 132 7t75 -65q20 -48 -18 -98.5t-109 -75.5q-71 -24 -131.5 -6t-75.5 66zM49 700q-17 47 20 97t107 75q69 25 132 7.5t75 -64.5q20 -48 -18 -98.5t-109 -75.5q-71 -24 -131.5 -6.5t-75.5 65.5z" />
<glyph unicode=";" horiz-adv-x="495" d="M49 66q-17 47 20 97t107 75q69 25 132 7t75 -65q4 -12 4 -20h4l-2 -4q0 -17 -2 -27q-6 -23 -182 -344l-111 -2l35 215q-2 0 -4 2q-61 16 -76 66zM111 700q-17 47 20 97t107 75q69 25 131.5 7.5t74.5 -64.5q20 -48 -18 -98.5t-109 -75.5q-71 -24 -131 -6.5t-75 65.5z" />
<glyph unicode="=" horiz-adv-x="1312" d="M41 1116l27 387h1200l-19 -385zM45 522l27 387h1200l-19 -385z" />
<glyph unicode="?" horiz-adv-x="1212" d="M45.5 764.5q-14.5 105.5 22 195t108.5 163.5t193 157q68 52 71 135q-1 48 -27 79.5t-66 43.5t-88 18t-93.5 3t-83.5 0l70 430q2 15 15.5 24.5t26 12.5t35.5 6t27 4q342 67 571 -62q131 -75 215 -175t111 -209.5t7 -221t-97.5 -217.5t-202.5 -190q-137 -79 -170 -111 q-50 -52 -69 -101.5t-7 -93t39 -80.5t72 -77l-4 -9l-488 -83q-7 11 -53.5 59t-54.5 63q-65 131 -79.5 236.5zM223 53q-29 89 40 180t196 136q128 45 237 12.5t142 -119.5q29 -87 -40 -180.5t-196 -134.5q-87 -28 -164.5 -24.5t-136.5 38.5t-78 92z" />
<glyph unicode="@" horiz-adv-x="2097" d="M41 1006q0 204 80 394.5t227 330.5l27 22l53 47q16 14 66 47l182 97q42 62 55 81v-2q2 11 21 11l12 -2l88 -35h6q30 0 92 8q66 8 97 8q207 0 394 -80t321.5 -215t214 -322.5t79.5 -394.5q0 -240 -121 -473l-73 -116l-23 -33q-4 -6 -4 -21q0 -22 1 -67t1 -66q2 -41 2 -137 v-53l-481 -45v55q-146 -45 -311 -45q-164 0 -317.5 50.5t-277 143.5t-216.5 216.5t-144 277.5t-51 318zM76 1024q0 1 1 4.5t1 5.5v-16q0 4 -2 6zM78 1016q0 -198 75 -379t203.5 -313t307.5 -210.5t378 -78.5q105 0 207 18l17 4h-2q27 8 57.5 15t30.5 6l4 16q-7 0 -20.5 -4.5 t-20.5 -5.5q-24 -6 -60 -6q-8 0 -11 1t-5 5t-2 14q0 72 2 109q4 62 4 94l-176 -108l-10 161l-27 -16q-8 -5 -19 -13.5t-12 -9.5h2q-4 -4 -16 -4q-16 0 -18 13l-27 120l-229 -294l-25 -15l-270 182q-13 3 -13 23l50 63q-6 5 -48 38.5t-65 50.5q-12 4 -12 28l233 287 q-27 1 -81.5 5t-82.5 5l-225 43q-17 6 -20 16q-2 5 -2 13l61 90q-19 5 -58.5 13.5t-60.5 13.5q-9 4 -14 12v-2zM78 1034l4 8v-2l557 850l-68 -39l-55 -30h2q-431 -313 -440 -787zM109 1040q2 0 6 -2.5t4 -3.5v-4zM119 1032v2h2zM119 1034l2 4q0 -2 -2 -4zM121 1034 q83 -20 96 -20q93 -16 197 -25h73q470 0 621 250q72 141 72 274q0 159 -79 263t-233 172q-101 49 -108 49h-4q-122 -182 -343.5 -520t-291.5 -443zM373 512q2 0 6 -2l278 -219q26 34 117.5 150.5t138.5 179.5h15q14 0 16 -13l55 -250q49 32 137.5 93.5t123.5 85.5 q22 0 22 -15v-30q0 -6 -6 -195q-4 -126 -4 -180h6l399 57q0 6 1 17t1 16q6 9 11 667v400l-480 -346q-15 0 -24 18l-51 268q-75 -112 -166.5 -167.5t-233.5 -79.5zM530 1231l269 418q3 0 23 -17t28 -28v2q47 -44 47 -117q0 -63 -35.5 -114.5t-90.5 -82.5t-118 -47t-123 -14z M639 1890l16 21l9 -17h-9q-8 0 -16 -4zM922 1968q75 -42 127.5 -91t113.5 -126q59 -75 84.5 -115.5t40.5 -99t15 -145.5q0 -62 -9 -115l-6 -16v2q-6 -22 -10 -56l35 -157l395 278q21 0 21 -14v-135l86 75l22 -815q4 6 39 64v-2l8 12q135 235 135 487q0 197 -76.5 378 t-206.5 312.5t-310.5 210t-378.5 78.5h-37zM1057 354v2l6 2zM1130 1241l17 -6q-6 -12 -12 -21l-2 19zM1243 301v16l8 -10l-2 -2h-4q0 -1 -1 -2t-1 -2z" />
<glyph unicode="A" horiz-adv-x="1765" d="M43 215l877 1821l804 -1669q0 -10 -8 -13l-534 -346l-82 295l-369 -53q-12 -2 -16 -6l-86 -285l-580 246zM844 719l176 24l-96 250q0 3 -4 11z" />
<glyph unicode="B" horiz-adv-x="1777" d="M41 -2l375 1987l289 47q123 20 248 22q6 0 13 1q120 -1 248 -27q136 -28 234 -86q122 -72 196 -198t88 -264q4 -35 5 -71q0 -103 -32 -207q-42 -140 -138 -239v-9q59 -81 75 -194q7 -47 8 -91q0 -61 -14 -116q-19 -103 -67 -186t-114.5 -137.5t-151 -96t-177.5 -61.5 q-92 -20 -192 -34q-96 -13 -188 -14h-7q-96 0 -188 1zM741 416h17q146 0 213 84q38 48 38 102q0 21 -6 42q-19 73 -91 102q-34 14 -76 14q-17 0 -35 -2q-5 -1 -7 -10t-3 -20.5t-3 -16.5l-47 -271v-24zM856 1217q1 0 6.5 -0.5t13.5 -1.5t13 -1q11 -1 21 -1q45 0 82 11 q46 13 73 37.5t43 56.5q15 29 16 60v6q-2 34 -14 65t-41 56.5t-68 38.5l-98 25l-4 -4l-43 -342v-6z" />
<glyph unicode="C" horiz-adv-x="1740" d="M53 547q-11 65 -11 139q0 120 30 260q48 228 147 432.5t219 339.5q98 107 220.5 183.5t256.5 109.5q99 24 196 24q34 -1 67 -3q129 -12 248.5 -85t205.5 -204q1 -2 11.5 -17t21.5 -31.5t22 -37.5q12 -23 12 -37q0 -12 -7 -21l-486 -319q-2 -1 -10 10t-21 28t-30.5 36.5 t-40.5 34.5t-48.5 23t-58 1t-65.5 -31q-132 -95 -178 -262q-19 -68 -18 -131q0 -72 24 -136q42 -111 139 -134q23 -5 48 -5q134 0 309 161q35 33 71 71l242 -477q6 -17 2 -23q-67 -85 -146 -167q-1 0 -2.5 -4t-3.5 -5q-147 -161 -347 -225q-130 -41 -266 -41q-75 0 -153 12 q-235 39 -397.5 174.5t-202.5 356.5z" />
<glyph unicode="D" horiz-adv-x="1660" d="M41 0v23l336 1998l18 4q140 17 276 19h13q130 0 269 -30q146 -31 261 -93q132 -72 244 -240q130 -191 155 -409q6 -54 6 -107q0 -161 -57 -315q-76 -204 -239 -371q-56 -59 -79.5 -82t-77 -71.5t-100.5 -77t-95 -43.5l-244 -80q-27 -7 -163.5 -36.5t-188.5 -39.5 q-33 -7 -160.5 -25.5t-173.5 -23.5zM756 829q72 10 139.5 54t110.5 107q42 62 60 132q7 28 6 56q0 42 -16 84q-26 70 -98 120q-4 4 -45 31t-49 27h-6l-102 -600v-11z" />
<glyph unicode="E" horiz-adv-x="1499" d="M41 -2l278 1960l1139 74l-92 -480l-453 -26q-2 -2 -6 -2q0 -2 -2 -11t-2 -10q-5 -24 -15 -98t-11 -113l350 -12l-51 -360l-345 -11q-4 -16 -6 -22q-16 -73 -32 -195h30l484 25q8 0 8 -21l-70 -604z" />
<glyph unicode="F" horiz-adv-x="1544" d="M41 -4l313 1976l1149 76l-102 -483q-19 -2 -27 -2h-4l-412 -25l-18 -4q-2 0 -10 -46.5t-15.5 -104.5t-7.5 -83q46 -2 164.5 -6t181.5 -8v-18l-51 -330l-6 -16q-75 -2 -106 -2h-13l-225 -9l-39 -188l-2 -39l-127 -614q0 -2 0.5 -8.5t0.5 -9.5t-2.5 -6.5t-8.5 -4.5z" />
<glyph unicode="G" horiz-adv-x="1728" d="M53 559q-11 63 -11 135q0 118 30 258q49 225 147 428t215 334q95 107 214.5 183t250.5 109q101 25 199 25q30 0 60 -2q127 -10 246 -81t206 -197q1 -1 9.5 -13t17.5 -25.5t20 -32.5t16.5 -33.5t7.5 -29t-8 -18.5l-479 -319q-1 -1 -24 27.5t-54.5 62t-48.5 41.5 q-24 6 -27 6v6h-12q-54 0 -110 -41q-61 -46 -97 -106q-84 -161 -84 -328v-22q8 -165 104 -194q19 -6 38 -6q41 0 83 26q46 29 47 60q0 41 -85 42v2l73 309l4 9q443 6 633 6h49l3 -2q2 0 2 -32.5t-2 -49.5q-8 -131 -32.5 -253.5t-67.5 -239t-105 -213.5t-144.5 -175.5 t-185.5 -126t-229 -64.5q-51 -8 -107 -8q-79 0 -166 15q-233 39 -394.5 173t-201.5 355z" />
<glyph unicode="H" horiz-adv-x="1636" d="M41 4l125 1962l528 49l-67 -751l370 28l86 686l512 76l-198 -1984l-523 -70l70 711l-346 -19l-76 -635z" />
<glyph unicode="I" horiz-adv-x="905" d="M41 -10l203 1990l620 60l-182 -1948z" />
<glyph unicode="J" horiz-adv-x="1757" d="M41 524v8l287 486l6 2q34 -30 84.5 -88.5t90.5 -106.5t96 -94.5t108 -66.5q31 -12 68 -12q25 0 53 6q68 13 139 69q82 46 116 169q28 100 28 216q0 27 -2 54q-8 147 -38 310t-64.5 284t-64.5 198q-3 8 4 8l537 74h8q5 0 12 -27q58 -140 101 -276.5t71 -287t33 -289.5 q1 -25 1 -49q0 -116 -20 -234q-24 -143 -78.5 -268t-152 -242t-233.5 -209q-128 -86 -267 -126q-73 -21 -144 -21q-61 0 -120 16q-290 79 -567 389q-13 13 -36 39.5t-39.5 47t-16.5 21.5z" />
<glyph unicode="K" horiz-adv-x="1536" d="M41 -10l244 1954l536 86l-63 -441l471 457l266 -371l-690 -651l659 -547l-309 -487l-553 422l-47 -353z" />
<glyph unicode="L" horiz-adv-x="1146" d="M41 -10l190 2074l11 7q378 24 540 34h54q-16 -237 -64 -712t-63 -713v-23q7 0 152 8.5t173 8.5q5 0 36 2t36 2q-1 -16 -14 -191q-8 -99 -25 -263.5t-20 -164.5l-25 -10z" />
<glyph unicode="M" horiz-adv-x="2586" d="M41 418l864 1628l383 -604l4 -2h6l406 596l842 -1645l-596 -389q-4 -2 -8 -2h-3l-354 541l-377 -492l-329 492l-293 -527z" />
<glyph unicode="N" horiz-adv-x="1726" d="M41 72l346 1951l584 -448l112 473q270 4 385 8h218l-259 -2058l-655 567l-117 -522l-4 -4h-22z" />
<glyph unicode="O" horiz-adv-x="1753" d="M42 901q9 312 153 594q141 278 361 420q180 116 380 115q73 0 149 -15q145 -31 259.5 -101.5t186.5 -166.5t117 -215q44 -120 56 -248q6 -63 6 -128q0 -67 -6 -137q-12 -136 -49.5 -265t-95.5 -249t-132 -218q-263 -280 -593 -280q-58 0 -119 9q-355 48 -533 320 q-141 215 -141 520q0 22 1 45zM641 1135v-15q1 -64 15 -116q16 -58 61 -103.5t114 -58.5q20 -3 39 -3q32 -1 60 9q46 16 77 46t55.5 75t38 88t23.5 92q9 46 9 88q0 109 -62 180q-63 72 -157 72h-8q-106 -4 -180 -94q-79 -98 -85 -260z" />
<glyph unicode="P" horiz-adv-x="1748" d="M41 -2l375 1978l286 49q120 21 246 23h14q120 0 249 -26q136 -27 233 -83q85 -51 145 -136.5t88.5 -185t29.5 -211.5v-8q0 -107 -25 -205q-26 -102 -83.5 -192.5t-138.5 -148.5q-111 -107 -412 -107q-95 0 -208 11q-4 0 -8.5 -4t-4.5 -9l-106 -682l1 -7q1 -6 1.5 -10.5 t-0.5 -6.5l-23 -4zM864 1122l4 -6q9 0 19 -1q121 0 195 74q55 54 55 118q0 9 -1 18q-10 79 -99 115q-40 17 -91 22h-20l-4 -10l-58 -315v-15z" />
<glyph unicode="Q" horiz-adv-x="1871" d="M43 778q-1 25 -1 50q0 243 54 437q59 214 207 425q98 140 229 228t267 116q74 16 149 16q64 0 128 -11q141 -24 260.5 -96t215 -198t142.5 -289q37 -120 37 -261q0 -226 -95 -507v-2l195 -430l-543 -395q-2 -1 -3 -1l-3 1q-3 1 -4 3l-2 1q-3 6 -54 93.5t-59 104.5 q-2 2 -4.5 5.5t-4 5.5t-5 4t-6.5 0q-139 -64 -303 -64q-1 -1 -3 -1q-162 0 -302 57q-232 88 -358 272.5t-134 435.5zM639 1153v-15q0 -63 15 -116q17 -59 63.5 -104.5t118.5 -57.5q21 -4 41 -4q30 0 57 9q46 15 76 45.5t54 76.5t37.5 88.5t24.5 91.5q10 49 10 92 q0 108 -62 179q-63 72 -158 72h-8q-107 -3 -182 -93q-81 -98 -87 -264z" />
<glyph unicode="R" horiz-adv-x="1822" d="M41 -2l375 1984l286 52q122 16 248 19h25q115 1 238 -25q137 -28 235 -86q87 -51 150.5 -141t99.5 -199q42 -122 42 -232q0 -120 -49 -224q-94 -202 -337 -319l14 -16l399 -313q2 -2 8 -10t7 -9v-4l-357 -440q-7 -10 -10.5 -12.5t-13.5 2.5l-592 442l-2 -4l-80 -428z M846 1122q1 0 2.5 -1t3.5 -1h19q120 0 194 73q55 54 55 118q0 9 -1 18q-10 78 -98 114q-40 16 -93 21h-19l-6 -8l-57 -315v-19z" />
<glyph unicode="S" horiz-adv-x="1767" d="M42 438v6q0 9 5 17l225 450q16 -11 53 -38.5t63 -45t64.5 -40.5t69.5 -32t65 -12q6 0 11 -1q28 0 54 14q30 16 55 47q33 49 33 109q0 32 -9 67q-38 106 -58.5 191t-24.5 167q-1 12 0 25q0 68 16 124q20 68 62.5 132t113 120.5t170.5 110.5q144 65 221 93q8 2 59 17.5 t118.5 36.5t86.5 27q63 19 76 19h4l151 -551v-12q-58 -5 -111.5 -16t-113.5 -35t-101 -57q-42 -33 -64 -87q-16 -38 -16 -82q0 -18 3 -37q5 -28 22.5 -72.5t37.5 -89.5t24 -57q51 -136 60 -266q2 -30 2 -59q0 -95 -23 -177q-30 -106 -97 -194t-162.5 -144t-222.5 -80 q-79 -15 -164 -16q-52 0 -108 6q-302 33 -579 328q-5 6 -15 15.5t-18 17.5t-18 19.5t-14 20.5t-6 21z" />
<glyph unicode="T" horiz-adv-x="1396" d="M41 1425l80 568l1235 49l-23 -569l-372 -21l-146 -1403l-600 -43l184 1430z" />
<glyph unicode="U" horiz-adv-x="2013" d="M43 1053q8 118 38.5 225t88.5 260q22 61 123 258q111 187 129 209l8 6l537 -219l4 -2q4 -3 6.5 -5.5t1.5 -6.5q-43 -99 -68.5 -164t-56.5 -159q-30 -94 -44 -181q-11 -71 -12 -140q0 -15 1 -30q5 -142 107 -184q36 -14 76 -15q58 0 125 31q110 50 167 150q26 47 35 98 q7 41 7 86q0 5 1 10q0 40 -4 76q-4 41 -15 89.5t-21.5 86.5t-28 87t-30 81t-30.5 78q0 8 4 8l541 258h10q8 -19 12 -25q109 -269 166 -517q50 -217 50 -433q0 -30 -1 -61q-6 -196 -92.5 -392t-238.5 -349.5t-336 -217.5q-133 -48 -303 -48q-94 0 -199 15q-176 24 -309 87 t-219 154t-138.5 217.5t-73.5 266.5q-18 121 -18 269v43z" />
<glyph unicode="V" horiz-adv-x="1894" d="M43 1624q-1 4 2.5 8t5.5 4l584 408h4q6 -6 10 -8l352 -512l295 512l9 10q0 6 10 6l530 -407q1 -1 2 -2.5t3 -5t1 -5.5l-901 -1628z" />
<glyph unicode="W" horiz-adv-x="2590" d="M41 1628l604 404l215 -527l404 492l303 -492l436 541h2l6 -2l539 -389l-1090 -1645l-315 596h-6l-4 -2l-473 -604z" />
<glyph unicode="X" horiz-adv-x="1970" d="M41 1604l516 430l414 -445l469 445l436 -410l-467 -549l520 -571l-401 -473l-527 596l-419 -619l-529 361l488 675z" />
<glyph unicode="Y" horiz-adv-x="1951" d="M41 1632l506 391l454 -659l408 680l502 -381l-588 -995l-27 -664l-639 47v639z" />
<glyph unicode="Z" horiz-adv-x="1658" d="M41 -2l674 1450l-660 -6l219 563l1344 39l-598 -1428l561 52l-108 -613z" />
<glyph unicode="\" horiz-adv-x="1011" d="M41 1997l240 35l690 -2042l-199 -60z" />
<glyph unicode="a" horiz-adv-x="1945" d="M43 233q118 247 437.5 909t475.5 988l76 -158l27 56l846 -1754q0 -45 -27 -57q-293 -191 -582 -377l-39 144l-63 -41l-55 202q-150 -25 -252 -39l-92 -305l-627 267l-23 63q0 2 2 4l-81 35zM80 215q-1 -2 0.5 -4.5t3.5 -4.5l2 -1l580 -246l86 285l16 6l369 53l82 -295 l534 346q8 3 8 13l-805 1669zM881 719l75 285q5 -10 5 -11l96 -250z" />
<glyph unicode="b" horiz-adv-x="1972" d="M41 -45l391 2066l318 52h-2q126 22 266 22q305 0 506 -119q97 -58 168 -147q118 -93 180.5 -234t62.5 -295q0 -123 -41.5 -240t-120.5 -208q74 -122 74 -281q0 -71 -12 -129q-31 -131 -108.5 -232t-177.5 -162.5t-228 -100.5t-249.5 -53.5t-254.5 -14.5q-76 0 -111 2 l-559 -28l21 108zM92 -2l510 27q46 -3 95 -3q34 0 69 2q85 4 170.5 9t170 23t162 42.5t146.5 66.5t123.5 94.5t93.5 127.5t56 166q13 54 13 114q0 45 -7 93q-17 113 -76 194v9q96 99 138 239q31 104 31 207q1 35 -3 71q-14 138 -88.5 264t-196.5 198q-99 58 -235 86 q-128 26 -247 27q-6 -1 -13 -1q-125 -2 -248 -22l-289 -47zM793 416v24l47 271q2 5 2.5 16.5t2.5 20.5t7 10q20 3 38 3q86 0 135 -60q35 -43 35 -94q0 -20 -5 -42q-20 -83 -110 -123q-58 -26 -136 -26h-16zM895 1186l59 340l4 6q17 0 29 -6q65 -13 109 -44q44 -30 60 -67 q14 -31 13 -65v-13q-3 -41 -24 -74.5t-60 -57t-88 -25.5h-100zM967 502q51 42 51 102v10q-10 2 -31 2q-4 -16 -4 -18zM1067 1241q61 39 61 107q0 3 -1 10t-1 10q-19 7 -34 10z" />
<glyph unicode="c" horiz-adv-x="1921" d="M41 686q0 261 121 566.5t287 492.5q139 154 324.5 243t371.5 89q149 0 281 -60t233 -184q88 -72 151 -170l13 -18l-4 4q60 -89 60 -140q0 -30 -21 -47l-486 -319q-11 -9 -20.5 -11t-19.5 4.5t-17 14t-19 23.5q-32 42 -51 59q-19 0 -43 31q-20 8 -35 8q-32 0 -67 -25 q-87 -63 -132.5 -161t-45.5 -199q0 -76 22 -127q18 -6 41 -6q146 0 393 264l70 -137l33 34l268 -532q0 -1 2 -5t2.5 -5.5l2 -6t2 -6.5t1 -6.5t0.5 -7.5t-1 -7t-2.5 -7.5t-4.5 -7.5q-91 -112 -147 -170q-1 -3 -11 -13q-129 -138 -295.5 -209t-349.5 -71q-84 0 -157 12 q-153 25 -282.5 95t-219.5 179q-188 151 -236 392q-12 65 -12 147zM94 547q40 -221 202.5 -356.5t397.5 -174.5q77 -12 153 -12q137 0 267 41q200 64 346 225q2 1 3.5 5t2.5 4q79 82 146 167q4 6 -2 23l-242 477q-218 -232 -383 -232h-12q-109 6 -162 115q-34 71 -34 158 q0 47 10 99q34 167 156 272q15 13 30 24q33 24 65.5 31t58 -1t48.5 -23t40.5 -34.5t30.5 -36.5t21 -28t10 -10l486 319q7 9 7 21q0 14 -12 37q-11 21 -22 37.5t-21.5 31.5t-11.5 17q-86 131 -205 205q-120 72 -249 84q-33 3 -67 3q-97 0 -196 -24q-134 -33 -256.5 -109.5 t-220.5 -183.5q-120 -135 -219 -340q-100 -204 -148 -432q-30 -141 -29 -260q0 -74 11 -139z" />
<glyph unicode="d" horiz-adv-x="1845" d="M41 29l340 2019l49 18q130 19 266 19q348 0 580 -127q93 -52 184 -160q89 -72 176 -196q81 -122 124.5 -261.5t43.5 -273.5q0 -186 -82.5 -375t-226.5 -344q-222 -232 -369 -285l-245 -79q-29 -8 -166.5 -38.5t-188.5 -39.5q-120 -20 -383 -56v76l7 43q-24 -4 -62 -9 t-47 -7v76zM82 0q46 5 173.5 23.5t160.5 25.5q52 10 188.5 39.5t163.5 36.5l244 80q48 15 95 43.5t100.5 77t77 71.5t79.5 82q163 167 239 371q57 154 57 315q0 53 -6 107q-25 218 -155 409q-112 168 -244 240q-115 62 -261 93q-139 30 -269 30h-13q-136 -2 -276 -19 q-14 -2 -18 -4l-336 -1998v-23zM797 829v11l102 600h6q8 0 49 -27t45 -31q73 -50 99 -120q16 -42 15 -84q-1 -28 -7 -56q-18 -70 -60 -132.5t-109.5 -106.5t-139.5 -54zM981 975q90 93 90 205q0 48 -22 88l-15 12z" />
<glyph unicode="e" horiz-adv-x="1701" d="M41 -47l291 2044l1227 80l-23 -111l125 8l-109 -563l-460 -29q-9 -53 -9 -55l240 -8l-14 -98l116 -4l-61 -441l-350 -10q-1 -3 -2 -13t-2 -14l344 19q18 0 29 -4t15.5 -15t5.5 -19.5t1 -27.5l-4 -41l55 4q18 0 29 -4t15.5 -14.5t5.5 -19t1 -27.5l-73 -639l-1291 -101 l17 113zM90 -2l1204 94l70 604q0 21 -8 21l-484 -25h-30q16 122 32 195l7 22l344 11l51 360l-350 12q1 39 11 113t15 98q0 1 2 10t2 11l7 2l452 26l92 480l-1138 -74z" />
<glyph unicode="f" horiz-adv-x="1746" d="M41 -49l328 2060l1235 82l-27 -111l129 9l-131 -553q-39 -19 -51 -19l-414 -24l-18 -4q-1 -8 -0.5 -17t2.5 -39h14q158 -5 235 -10v-63l-6 -33l109 -6v-64l-51 -336l-21 -45q-102 -2 -133 -2h-12l-191 -6q-5 -28 -16.5 -79.5t-15.5 -74.5q0 -6 -1 -21.5t-1 -21.5 l-127 -610q2 -7 2 -14q0 -34 -45 -51l-691 -50l17 111zM90 -4l633 45q6 1 8.5 4.5t2.5 6.5t-0.5 9.5t-0.5 8.5l127 614l2 39l39 188q157 9 225 9h13l106 2l6 16l52 330v18q-63 4 -182 8t-165 6q0 25 7.5 83t15.5 104.5t10 46.5l19 4l411 25h4l27 2l102 483l-1149 -76z" />
<glyph unicode="g" horiz-adv-x="1910" d="M41 694q0 255 120.5 559.5t282.5 487.5q137 155 319 243.5t367 88.5q145 0 277.5 -62t237.5 -188q81 -69 149 -164v4q70 -99 70 -153q0 -32 -25 -48l-387 -243q86 2 223 2q36 0 56 -4q7 -9 17 -40t15 -59h15q35 0 55 -4q9 -11 22.5 -54t14.5 -69q-9 -122 -32 -238.5 t-63 -228.5t-94 -209t-128 -178.5t-161.5 -140t-198.5 -91t-235 -32.5q-94 0 -174 14h2q-153 25 -282 94.5t-217 178.5q-190 156 -234 391q-12 61 -12 143zM94 559q40 -221 201.5 -355t394.5 -173q87 -15 166 -15q56 0 108 8q125 17 228 64.5t185.5 126t144 175.5 t104.5 213.5t67.5 239t32.5 253.5q2 17 2 49.5t-2 32.5l-2 2h-49l-633 -6l-4 -9l-73 -309v-2q84 -1 85 -41q0 -31 -46 -60q-42 -27 -84 -27q-19 0 -39 6q-95 30 -103 194v22q0 167 84 328q36 60 98 106q55 41 109 41h12v-6q3 0 27 -6q17 -8 48.5 -41.5t54.5 -62t24 -27.5 l479 319q10 4 8 18.5t-7.5 29t-16.5 33.5t-20 32.5t-17.5 25.5t-9.5 13q-87 126 -206 197t-247 81q-29 2 -59 2q-98 0 -199 -25q-131 -33 -250.5 -109t-214.5 -183q-117 -131 -215 -334t-147 -428q-30 -140 -30 -258q0 -72 11 -135zM922 817q0 -7 6 -49q30 3 55 17t25 28 q-25 2 -86 4zM922 850l65 280q-65 -136 -65 -280zM1047 1214q67 3 202 3l-32 36q-25 15 -29 19q-11 3 -19 8q-60 0 -122 -66z" />
<glyph unicode="h" horiz-adv-x="1828" d="M41 -41l129 2044l612 57l-10 -112l113 10l-58 -643l177 16l86 684l596 88l-13 -121l115 19l-209 -2071l-604 -80l10 119l-113 -16l60 604l-152 -6l-75 -633l-562 -61l7 114zM84 4l481 53l76 635l346 19l-69 -711l522 70l198 1984l-512 -76l-86 -686l-370 -28l67 751 l-528 -49z" />
<glyph unicode="i" horiz-adv-x="1099" d="M41 -59l213 2078l702 66l-10 -113l113 10l-189 -2029l-727 -115l13 121zM88 -10l641 102l182 1948l-620 -60z" />
<glyph unicode="j" horiz-adv-x="1939" d="M41 524v19l305 516l43 2q39 -33 100 -103h3q21 -18 41.5 -38t31.5 -33t31 -36.5t29 -33.5l49 -59q83 -66 155 -66q73 0 158 68q129 71 129 356q0 202 -55.5 446t-110.5 382q-11 35 -2.5 49t39.5 14l537 74h14q17 0 32 -19.5t19 -36.5l21 -49l16 2h14q17 0 32.5 -19 t19.5 -36q206 -492 206 -915q0 -650 -501 -988q-228 -153 -436 -153q-59 0 -127 18q-153 41 -304.5 149.5t-281.5 248.5q-67 63 -105 106q-16 18 -41 50.5t-43 57.5t-18 27zM82 524q0 -1 16.5 -21.5t39.5 -47t36 -39.5q277 -310 567 -389q59 -16 120 -16q71 0 145 21 q138 40 266 126q136 92 233.5 209t152 242t78.5 268q20 118 20 234q0 24 -1 49q-5 139 -33 289.5t-71 287t-101 276.5q-7 27 -12 27h-8l-537 -74q-7 0 -4 -8q30 -77 64.5 -198t64.5 -284t38 -310q2 -27 2 -54q0 -116 -28 -216q-34 -123 -116 -169q-71 -56 -140 -69 q-27 -6 -52 -6q-37 0 -68 12q-52 20 -108 66.5t-96 94.5t-90.5 106.5t-84.5 88.5l-6 -2l-287 -486v-8z" />
<glyph unicode="k" horiz-adv-x="1740" d="M41 -57l254 2037l623 99l-19 -123l121 20l-21 -143l283 274l84 -118l18 16l316 -438l-674 -635l539 -447l-9 -12l111 -90l-350 -555l-533 405l-43 -313l-598 -80l15 119zM88 -10l514 69l47 353l553 -422l309 487l-659 547l690 651l-266 371l-471 -457l63 441l-536 -86z " />
<glyph unicode="l" horiz-adv-x="1316" d="M41 -72l197 2124l24 21q391 24 553 34h88q-4 -68 -8 -104q4 0 11.5 1t11.5 1h88q-22 -332 -66 -748q-44 -442 -55 -591q28 1 72 4t72 4.5t40 1.5q15 0 31 2q8 0 40 1t34 1l-9 -107h6q15 0 31 2q8 0 40 1.5t34 1.5l-16 -224q-8 -108 -36 -282t-40 -174h8q-4 -1 -11.5 -5.5 t-11.5 -5.5l-1026 -61l11 111zM76 -39l981 59l24 11q3 0 20 164.5t25 263.5q1 7 7.5 89.5t7.5 100.5q-5 0 -36 -2t-36 -2q-28 0 -176.5 -8t-149.5 -8v22q16 238 63.5 713.5t63.5 712.5h-53l-541 -35l-10 -6z" />
<glyph unicode="m" horiz-adv-x="2795" d="M41 406l915 1722l84 -135l19 32l309 -489l393 580l74 -146l29 43l891 -1739l-627 -409q-16 -8 -55 -8l-70 104q-8 -2 -33 -2l-252 383l-356 -467l-86 125l-16 -23l-238 351q-36 -65 -129 -231t-137 -247l-613 453l11 19zM94 418l545 -404l293 527l330 -492l376 492 l355 -541h2l8 2l596 389l-842 1645l-405 -596h-6l-5 2l-383 604z" />
<glyph unicode="n" horiz-adv-x="1925" d="M41 33l367 2064l587 -450l105 442q301 4 416 8h266l-15 -102h117l-274 -2181l-660 573l-114 -491h-58l-635 34l17 97zM90 72l588 -33h22l5 4l116 522l656 -567l258 2058h-217l-385 -8l-113 -473l-584 448z" />
<glyph unicode="o" horiz-adv-x="1937" d="M41 862q0 142 31 287.5t87.5 279.5t141 251.5t186.5 204t229 136.5t263 50q79 0 156 -15q290 -62 456 -268q154 -126 229.5 -318t75.5 -417q0 -236 -81 -477.5t-220 -425.5q-269 -285 -618 -285q-70 0 -125 8q-331 47 -516 274q-148 122 -221.5 308.5t-73.5 406.5z M82 830q9 -331 179 -547q177 -224 495 -267q60 -9 119 -9q331 0 593 280q74 98 132 218t95.5 249t49.5 265q6 69 6 137q1 66 -5 128q-12 128 -57 247.5t-117 215.5t-186.5 166.5t-259.5 101.5q-76 16 -150 16q-227 0 -427 -150q-215 -160 -344 -449q-123 -279 -123 -571v-31 zM682 1135q7 200 121 296q69 58 148 58q18 0 37 -3q97 -16 148 -103q38 -63 38 -148q0 -41 -9 -86q-10 -49 -23.5 -92t-38 -88t-55.5 -75q-30 -30 -76 -46q-29 -10 -61 -9q-19 0 -39 3q-69 13 -114 58q-46 46 -62 104q-15 52 -14 116v15zM825 1030v-17q0 -67 21 -122 q9 -4 35 -8h-2q17 -3 33 -3q36 0 66 15q44 22 72.5 67t45.5 92t28 103q9 47 9 76q0 56 -19 102q-33 11 -57 11q-90 0 -159 -82.5t-73 -233.5z" />
<glyph unicode="p" horiz-adv-x="1943" d="M41 -45l391 2056l316 55h-3q117 21 263 21q311 0 508 -113q80 -49 145 -133q118 -88 180 -234.5t62 -312.5q0 -157 -74.5 -318.5t-190.5 -258.5q-126 -115 -438 -115q-116 0 -182 6l-103 -659q0 -33 -22 -55l-39 -5h2q-109 -5 -356 -18t-357 -18l21 108zM92 -2l660 35 l22 4q1 2 0.5 6.5t-1.5 10.5l-1 7l107 682q0 5 4 9t8 4q113 -11 208 -11q301 0 412 107q81 58 138.5 148.5t83.5 192.5q25 98 25 205v8q-1 112 -29.5 211.5t-88.5 185t-145 136.5q-97 56 -233 83q-128 26 -248 26h-14q-126 -2 -246 -23l-287 -49zM915 1122v15l58 315l4 10 h20q136 -14 178 -96q14 -28 14 -58q0 -40 -26 -82q-48 -79 -154 -103q-35 -7 -72 -7h-17q-3 2 -5 6zM1020 629q2 2 2 6zM1092 1206q55 46 55 103q-11 4 -37 8z" />
<glyph unicode="q" horiz-adv-x="2066" d="M43 776v42q0 490 268 894q131 181 314 280t370 99q168 0 326 -76t274 -215q201 -171 281 -434q39 -124 39 -274q0 -219 -92 -508q27 -59 98 -214t104 -231l-575 -418q-10 -3 -19 -3q-7 0 -13 2q-14 4 -23 11l-9 7l-20 35l2 -2q-2 4 -13.5 21.5t-17.5 29.5q-14 -2 -27 2.5 t-20 9.5l-6 6l-20 35l2 -2q-18 27 -25 41q-122 -45 -260 -45q-161 0 -317 59q-203 84 -330 238q-136 111 -211.5 268t-79.5 342zM84 778q8 -251 133.5 -435.5t357.5 -272.5q140 -57 303 -57q1 0 2 1q165 0 304 64q4 2 7.5 0t7 -7.5t5.5 -7.5q8 -17 59 -104.5t54 -93.5l12 -4 l543 395l-195 430v2q95 281 95 507q0 141 -37 261q-47 163 -142.5 289t-215 198t-260.5 96q-64 11 -128 11q-75 0 -149 -16q-136 -28 -267 -116t-229 -228q-148 -211 -207 -425q-54 -194 -54 -437q0 -25 1 -50zM680 1153q7 200 121 298q69 60 151 60q17 0 36 -3 q98 -15 150 -103q38 -64 38 -149q0 -42 -9 -89q-11 -49 -24.5 -91.5t-37.5 -88.5t-54 -76.5t-75 -45.5q-28 -9 -58 -9q-20 0 -41 4q-72 12 -118.5 57.5t-63.5 104.5q-15 53 -15 116v15zM823 1049v-17q0 -66 21 -121q23 -8 39 -10h2q16 -3 32 -3q33 0 63 15q42 22 70.5 68.5 t45.5 92.5t30 102q9 43 9 79q0 48 -19 103q-30 10 -57 10q-91 0 -161.5 -83t-74.5 -236z" />
<glyph unicode="r" horiz-adv-x="2017" d="M41 -45l391 2062l316 58q111 18 249 18q323 0 523 -117q83 -53 145 -133q151 -114 225 -332v2q43 -119 43 -245q0 -172 -87.5 -311t-250.5 -232l256 -201l15 -20q4 -8 4 -19l84 -63l14 -21q8 -20 8 -43l-366 -452l4 4q-15 -23 -23 -31t-23 -8t-38 16l-541 400l-74 -393 l-772 -41l21 108zM92 -2l686 37l80 428l2 4l592 -442q10 -5 14 -2.5t11 12.5l356 440v4q-1 1 -6.5 9t-7.5 10l-400 313l-14 16q243 117 337 319q49 105 49 224q0 110 -42 232q-36 109 -99.5 199t-150.5 141q-99 58 -235 86q-124 26 -238 25h-24q-126 -3 -248 -19l-287 -52z M897 1122v19l57 315l7 8h18q137 -12 178 -93q15 -29 15 -59q0 -40 -26 -81q-48 -78 -152 -103q-36 -8 -75 -8h-16q-2 0 -3.5 1t-2.5 1zM1071 1208q59 46 59 103q-14 5 -38 8z" />
<glyph unicode="s" horiz-adv-x="1951" d="M51 479l244 490q58 -34 96 -64q53 -38 82.5 -57.5t77 -41.5t80.5 -22q47 0 84 45v-4q24 37 24 90q0 28 -6 52v-2q-86 230 -86 393q0 166 90.5 292.5t294.5 235.5q141 63 230 96q42 6 186 56l76 24q19 5 64.5 13t58.5 8l30 -113q48 10 72 10l162 -589v-52 q-72 -7 -138.5 -23.5t-133.5 -46.5q-67 -29 -103 -81q-30 -42 -31 -95q0 -12 2 -24q3 -16 10.5 -39t14.5 -39t19 -43.5t16 -36.5v2q15 -29 22 -55q66 -177 66 -336q0 -191 -87 -339.5t-249 -232t-375 -83.5q-58 0 -113 6q-319 35 -606 340h2l-12 12l-8 6l-17 15 q-45 41 -67 69h2l-21 21v-2q-62 58 -62 108q0 19 9 37zM83 438q2 -12 6 -21t14 -20.5t18 -19.5t18 -17.5t15 -15.5q277 -295 579 -328q55 -6 108 -6q86 0 164 16q127 24 222.5 80t162.5 144t97 194q23 82 23 177q0 29 -2 59q-9 130 -60 266q-4 12 -24 57t-37.5 89.5 t-22.5 72.5q-3 19 -3 37q1 44 17 82q22 54 63 87t101 57t113.5 35t111.5 16v12l-151 551h-4q-13 0 -76 -19q-19 -6 -86.5 -27t-118.5 -36.5t-59 -17.5q-77 -28 -221 -93q-100 -54 -170.5 -110.5t-112.5 -120.5t-62 -132q-17 -57 -17 -124q1 -12 1 -25q4 -82 24 -167t58 -191 q9 -35 9 -67q0 -60 -33 -109q-26 -31 -56 -47q-26 -13 -53 -13h-11q-34 3 -65 12t-69.5 32t-64.5 40.5t-63 45t-53 38.5l-225 -450q-5 -8 -6 -17q1 -3 1 -6z" />
<glyph unicode="t" horiz-adv-x="1589" d="M41 1384l90 648l1315 53l-4 -107l106 4l-26 -651l-375 -22q-23 -234 -73.5 -709.5t-72.5 -691.5l-684 -49l15 110l-117 -8l170 1327q-28 -1 -78.5 -2.5t-90.5 -2.5t-73 -1l15 104q-21 0 -60 -1t-57 -1zM88 1425l358 11l-184 -1430l600 43l146 1403l372 21l23 569 l-1235 -49z" />
<glyph unicode="u" horiz-adv-x="2197" d="M43 1053q6 85 27 177t42.5 157t59.5 165q12 30 59 127.5t66 135.5q114 192 135 217l29 26l565 -231q13 -7 19 -11t12.5 -18t1.5 -31l-6 -12l75 -31q28 -16 34 -31q4 -12 -1 -28q-57 -130 -90.5 -217t-62.5 -213q-25 -111 -26 -205q0 -13 1 -26q0 -30 6 -54q10 -2 33 -2 q94 0 181.5 69.5t105.5 172.5q8 41 8 88q0 74 -22 169t-45.5 160t-61.5 160q0 32 7 45.5t30 14.5q89 42 269 129t269 129h47q15 -33 23 -45l22 -62q3 0 11 4h47q14 -33 22 -45q105 -262 163.5 -498t58.5 -472q0 -10 -1.5 -32t-1.5 -32q-6 -200 -98 -403t-250.5 -362.5 t-345.5 -229.5q-137 -49 -315 -49q-89 0 -205 14h-2q-392 53 -588 291q-170 138 -240 360q-67 213 -67 504v25zM84 1053v-43q0 -147 18 -269q21 -140 73.5 -266.5t138.5 -217.5t219 -154t309 -87q105 -15 199 -15q169 0 302 48q138 48 261 150t210 231.5t140 280.5t57 297 q1 30 1 61q0 217 -50 433q-57 248 -166 517l-12 25h-10l-541 -258q-4 0 -4 -8q18 -46 30.5 -78t30 -81t28 -87t21.5 -86.5t15 -89.5q4 -36 4 -76v-10q0 -45 -8 -86q-21 -122 -131 -205q-94 -72 -194 -72h-8q-111 2 -155 95q-20 43 -22 102q-1 15 -1 30q-1 69 11 140 q14 87 45 181t56.5 159t68.5 164q1 4 -1.5 6.5t-6.5 5.5l-4 2l-537 219l-8 -6q-18 -22 -129 -209q-101 -197 -123 -258q-58 -153 -88.5 -260t-38.5 -225z" />
<glyph unicode="v" horiz-adv-x="2078" d="M45 1610q-3 6 -3 13q0 11 8 23q12 18 30 27l-10 -4l616 426q25 -25 29 -27l59 -86l14 11q25 -25 29 -27l238 -344q19 33 109 191.5t139 242.5l16 17q-2 -2 -6 -2q22 22 57 22l541 -416q18 -21 22 -41l80 -61l3.5 -3.5t8 -10.5t7.5 -15t4 -18v-5q0 -8 -4 -14l-936 -1693 l-80 143l-23 -41zM84 1624l907 -1620l901 1628q1 2 -0.5 5t-3.5 5l-2 3l-530 407q-10 0 -10 -6q-5 -8 -9 -10l-295 -512l-352 512l-10 8h-4l-584 -408q-2 0 -5.5 -4t-2.5 -8zM1311 2066q2 3 2 5z" />
<glyph unicode="w" horiz-adv-x="2799" d="M41 1645l674 448l53 -135l49 33l144 -357l358 434l80 -131l22 29l224 -360l391 481q33 0 51 -12v2l569 -412l-12 -20l115 -82l-1149 -1737l-76 143l-27 -41l-247 469l-457 -581l-60 157l-43 -55zM92 1628l621 -1628l473 604l4 2h6l315 -596l1090 1645l-539 389q-2 2 -6 2 h-2l-436 -541l-303 492l-404 -492l-215 527z" />
<glyph unicode="x" horiz-adv-x="2183" d="M41 1608l577 483l99 -106l4 4l313 -338l463 440l494 -463l-4 -4l106 -98l-471 -553l520 -572l-454 -534l-97 110l-6 -8l-426 480l-407 -601l-596 408l14 20l-117 82l494 684zM98 1604l500 -560l-487 -675l528 -361l420 619l526 -596l402 473l-521 571l467 549l-436 410 l-469 -445l-414 445z" />
<glyph unicode="y" horiz-adv-x="2162" d="M41 1640l569 441l82 -119l21 16l354 -516l387 641l565 -430l-10 -16l113 -86l-600 -1016l-29 -696l-719 51v94l-102 8v666q-315 478 -631 962zM96 1632l617 -942v-639l639 -47l26 664l588 995l-502 381l-407 -680l-455 659z" />
<glyph unicode="z" horiz-adv-x="1886" d="M41 -45l625 1345l-504 -2l39 103h-142l250 645l1434 41l-45 -107l147 5l-547 -1309q58 5 194 18.5t202 18.5l-21 -113l123 10l-123 -696l-1530 -61l50 108zM104 -2l1432 57l109 613l-562 -52l598 1428l-1343 -39l-219 -563l659 6z" />
<glyph unicode="|" horiz-adv-x="434" d="M41 -49l129 2062l223 19l-100 -2046z" />
<glyph unicode="&#xa1;" horiz-adv-x="804" d="M41 -90l143 1538l500 82l-158 -1573zM137 1714q-33 87 36.5 180t197.5 138q126 44 238.5 11t140.5 -118q29 -88 -38.5 -179.5t-195.5 -137.5q-127 -42 -238.5 -12t-140.5 118z" />
<glyph unicode="&#xa2;" horiz-adv-x="1409" d="M51 618q-35 205 62.5 486t246.5 448q123 137 290.5 205t326.5 41l125 313l266 -38l-160 -385q63 -56 101 -115q1 -1 10 -14t17.5 -25.5t17.5 -30t9 -27.5t-7 -18l-297 -196l-166 -471q91 55 174 145l193 -379q6 -12 2 -16q-63 -81 -117 -135q-1 0 -2.5 -3.5t-3.5 -3.5 q-90 -98 -209 -152t-250 -59l-121 -294l-219 65l100 258q-152 45 -255.5 146.5t-133.5 254.5zM594.5 955q4.5 -87 48.5 -144l168 500q-28 -4 -59 -25q-80 -60 -121 -152t-36.5 -179z" />
<glyph unicode="&#xa3;" d="M41 1788v4q0 8 14.5 21.5t32.5 27t32.5 36t14.5 46.5q0 19 -9 56.5t-9 58.5q27 0 70.5 -37t74.5 -37q25 0 66 30.5t57 30.5h6q4 -48 19 -74t30 -29.5t28.5 -6t14.5 -8.5q-1 -4 -8 -34t-8 -34v-8q0 -47 35 -111h2h6q2 0 16.5 8.5t16.5 8.5q16 0 33.5 -23t31 -50t33 -50 t39.5 -23h8q162 70 332 70q134 0 261.5 -40.5t232 -116t183.5 -176t123 -227.5t44 -263q0 -169 -67 -324t-179.5 -267.5t-267.5 -179.5t-324 -67q-170 0 -323.5 68t-263 182t-174 269t-64.5 323q0 273 172 501v9q0 20 -14.5 41t-31.5 36.5t-31.5 36.5t-14.5 41v9 q28 37 41 59l8 16q0 3 -3 5.5t-5 2.5h-33q-20 0 -47 -12t-43 -12h-6q-4 145 -103 186q-43 11 -49 27zM166 1831q0 -11 14.5 -24t14.5 -25q0 -19 -2 -21l-7 -14q0 -3 15 -12t32.5 -19t20.5 -14q2 -3 5.5 -14t7.5 -20t7 -9q6 0 18 12.5t19 14.5q-3 8 -11 25.5t-13.5 32.5 t-5.5 25h22v27q6 0 10.5 0.5t4.5 0t12 -8.5l8 16q6 -9 10.5 -30t12 -33t24.5 -12q47 0 47 20q0 14 -19 33t-22 30q-4 12 -11 48t-7 47q-28 -19 -70 -19q-18 0 -44 17.5t-34 17.5h-6q-9 -4 -10.5 -15.5t1 -25.5t1.5 -18q-2 -8 -23.5 -14.5t-21.5 -18.5zM344 1608q0 -4 2 -4 q3 0 3 4t-3 4q-2 0 -2 -4zM709 231l559 35l14 4q1 0 6.5 45t11.5 104.5t9 94.5q1 8 4 54.5t4 54.5q-2 0 -19.5 -1t-19.5 -1q-40 0 -188 -11l2 13q8 140 36 411.5t37 401.5h-30l-308 -23l-6 -2z" />
<glyph unicode="&#xa4;" d="M41 1788v4q0 8 14.5 21.5t32.5 27t32.5 36t14.5 46.5q0 19 -9 56.5t-9 58.5q27 0 70.5 -37t74.5 -37q25 0 66 30.5t57 30.5h6q4 -48 19 -74t30 -29.5t28.5 -6t14.5 -8.5q-1 -4 -8 -34t-8 -34v-8q0 -47 35 -111h2h6q2 0 16.5 8.5t16.5 8.5q16 0 33.5 -23t31 -50t33 -50 t39.5 -23h8q162 70 332 70q134 0 261.5 -40.5t232 -116t183.5 -176t123 -227.5t44 -263q0 -169 -67 -324t-179.5 -267.5t-267.5 -179.5t-324 -67q-170 0 -323.5 68t-263 182t-174 269t-64.5 323q0 273 172 501v9q0 20 -14.5 41t-31.5 36.5t-31.5 36.5t-14.5 41v9 q28 37 41 59l8 16q0 3 -3 5.5t-5 2.5h-33q-20 0 -47 -12t-43 -12h-6q-4 145 -103 186q-43 11 -49 27zM166 1831q0 -11 14.5 -24t14.5 -25q0 -19 -2 -21l-7 -14q0 -3 15 -12t32.5 -19t20.5 -14q2 -3 5.5 -14t7.5 -20t7 -9q6 0 18 12.5t19 14.5q-3 8 -11 25.5t-13.5 32.5 t-5.5 25h22v27q6 0 10.5 0.5t4.5 0t12 -8.5l8 16q6 -9 10.5 -30t12 -33t24.5 -12q47 0 47 20q0 14 -19 33t-22 30q-4 12 -11 48t-7 47q-28 -19 -70 -19q-18 0 -44 17.5t-34 17.5h-6q-9 -4 -10.5 -15.5t1 -25.5t1.5 -18q-2 -8 -23.5 -14.5t-21.5 -18.5zM344 1608q0 -4 2 -4 q3 0 3 4t-3 4q-2 0 -2 -4zM426 1186l307 -342l-299 -414l324 -221l256 379l321 -365l246 289l-317 348l284 338l-266 250l-287 -270l-256 270z" />
<glyph unicode="&#xa5;" d="M41 1788v4q0 8 14.5 21.5t32.5 27t32.5 36t14.5 46.5q0 19 -9 56.5t-9 58.5q27 0 70.5 -37t74.5 -37q25 0 66 30.5t57 30.5h6q4 -48 19 -74t30 -29.5t28.5 -6t14.5 -8.5q-1 -4 -8 -34t-8 -34v-8q0 -47 35 -111h2h6q2 0 16.5 8.5t16.5 8.5q16 0 33.5 -23t31 -50t33 -50 t39.5 -23h8q162 70 332 70q134 0 261.5 -40.5t232 -116t183.5 -176t123 -227.5t44 -263q0 -169 -67 -324t-179.5 -267.5t-267.5 -179.5t-324 -67q-170 0 -323.5 68t-263 182t-174 269t-64.5 323q0 273 172 501v9q0 20 -14.5 41t-31.5 36.5t-31.5 36.5t-14.5 41v9 q28 37 41 59l8 16q0 3 -3 5.5t-5 2.5h-33q-20 0 -47 -12t-43 -12h-6q-4 145 -103 186q-43 11 -49 27zM166 1831q0 -11 14.5 -24t14.5 -25q0 -19 -2 -21l-7 -14q0 -3 15 -12t32.5 -19t20.5 -14q2 -3 5.5 -14t7.5 -20t7 -9q6 0 18 12.5t19 14.5q-3 8 -11 25.5t-13.5 32.5 t-5.5 25h22v27q6 0 10.5 0.5t4.5 0t12 -8.5l8 16q6 -9 10.5 -30t12 -33t24.5 -12q47 0 47 20q0 14 -19 33t-22 30q-4 12 -11 48t-7 47q-28 -19 -70 -19q-18 0 -44 17.5t-34 17.5h-6q-9 -4 -10.5 -15.5t1 -25.5t1.5 -18q-2 -8 -23.5 -14.5t-21.5 -18.5zM344 1608q0 -4 2 -4 q3 0 3 4t-3 4q-2 0 -2 -4zM444 1194l375 -571v-387l385 -29l17 403l358 602l-305 232l-246 -414l-276 402z" />
<glyph unicode="&#xa6;" horiz-adv-x="1705" />
<glyph unicode="&#xa7;" d="M41 1788v4q0 8 14.5 21.5t32.5 27t32.5 36t14.5 46.5q0 19 -9 56.5t-9 58.5q27 0 70.5 -37t74.5 -37q25 0 66 30.5t57 30.5h6q4 -48 19 -74t30 -29.5t28.5 -6t14.5 -8.5q-1 -4 -8 -34t-8 -34v-8q0 -47 35 -111h2h6q2 0 16.5 8.5t16.5 8.5q16 0 33.5 -23t31 -50t33 -50 t39.5 -23h8q162 70 332 70q134 0 261.5 -40.5t232 -116t183.5 -176t123 -227.5t44 -263q0 -169 -67 -324t-179.5 -267.5t-267.5 -179.5t-324 -67q-170 0 -323.5 68t-263 182t-174 269t-64.5 323q0 273 172 501v9q0 20 -14.5 41t-31.5 36.5t-31.5 36.5t-14.5 41v9 q28 37 41 59l8 16q0 3 -3 5.5t-5 2.5h-33q-20 0 -47 -12t-43 -12h-6q-4 145 -103 186q-43 11 -49 27zM166 1831q0 -11 14.5 -24t14.5 -25q0 -19 -2 -21l-7 -14q0 -3 15 -12t32.5 -19t20.5 -14q2 -3 5.5 -14t7.5 -20t7 -9q6 0 18 12.5t19 14.5q-3 8 -11 25.5t-13.5 32.5 t-5.5 25h22v27q6 0 10.5 0.5t4.5 0t12 -8.5l8 16q6 -9 10.5 -30t12 -33t24.5 -12q47 0 47 20q0 14 -19 33t-22 30q-4 12 -11 48t-7 47q-28 -19 -70 -19q-18 0 -44 17.5t-34 17.5h-6q-9 -4 -10.5 -15.5t1 -25.5t1.5 -18q-2 -8 -23.5 -14.5t-21.5 -18.5zM344 1608q0 -4 2 -4 q3 0 3 4t-3 4q-2 0 -2 -4zM486.5 451.5q4.5 -11.5 10.5 -19t16 -17.5t13 -16q174 -181 361 -202q107 -10 197 13t151.5 75.5t96.5 125t34 166.5t-39 195q-42 81 -53 133q-6 42 8 75.5t39.5 54t62 35.5t69.5 22t69 10v6l-97 338h-2q-31 -6 -43 -8q-131 -47 -166 -52 q-10 -3 -70 -29t-65 -28q-92 -49 -144 -103.5t-68 -121.5t-5 -139.5t47 -171.5q15 -68 -16 -109q-22 -27 -48.5 -35t-58.5 4.5t-55 26t-58.5 39t-47.5 33.5l-136 -281q-7 -8 -2.5 -19.5z" />
<glyph unicode="&#xa9;" horiz-adv-x="2455" d="M41 307v1520h2374v-1520h-2374zM63 330h2331v1476h-2331v-1476zM104 1161v8v13q21 357 21 374q0 14 8.5 63.5t11.5 61.5q2 5 9.5 13t11.5 8l16 1q17 1 23 1t17 -0.5t19 -1t9 -0.5q11 -2 34 -9.5t27 -11.5t11.5 -27.5t9.5 -35.5q3 -11 3 -62.5t-3 -62.5l166 147 q10 -4 32.5 -4t30.5 4q7 0 21 41q21 21 22 21h12q3 0 9.5 1t9.5 1t17 -1l14 -1q13 0 41 -21q2 -2 8 -6.5t10 -8.5t4 -7v-31v-31q0 -12 -22 -41q-20 -20 -21 -20h-104q-1 0 -21 -20q-12 -21 -82 -166q-2 -2 -2 -7q-2 -2 -2 -4v-2l4 -10q0 -3 18.5 -30t22.5 -31q5 -16 12 -25 l9 -16q0 -4 -16 -27.5t-27 -36.5q0 -3 -9.5 -11t-9.5 -9q-13 -13 -43 -23h-10h-10l-135 107v-107h-156q-1 0 -5.5 7.5t-9.5 18.5t-6 17zM184 680q0 6 0.5 16.5t1 18t0.5 8.5q0 3 10.5 11t10.5 11q3 6 11 72t11 72q2 8 9.5 23.5t11.5 19.5t37.5 21t44.5 20q5 0 104 22h13h8 q3 -1 7 -5t8.5 -9.5t6.5 -7.5q0 -3 9.5 -20t9.5 -21q3 -4 11 -30.5t11 -31.5q0 7 8 31.5t13 30.5q18 23 41 41q24 14 63 22h51h52q20 0 86 -22q18 -18 18 -21l43 -166q31 138 41 166q1 4 9 11.5t13 9.5q66 22 82 22q3 0 31 -21.5t31 -21.5q17 -4 73.5 -4t73.5 4 q23 -18 41 -41q4 -7 12.5 -47.5t8.5 -56.5q4 -28 12 -117t8 -112v-74v-72q-14 -11 -61 -20h-11q-11 -1 -24.5 -1.5t-20.5 -0.5q-6 0 -18 0.5t-22 1.5h-9q-4 0 -11 7.5t-9 12.5q-8 43 -28.5 178.5t-24.5 175.5v-374h-156q-4 0 -11.5 7.5t-9.5 12.5q-12 28 -20 84 q-13 -16 -61 -56.5t-64 -47.5h-11q-11 -1 -24.5 -1.5t-19.5 -0.5q-9 0 -38.5 1t-31.5 1q-10 0 -63 20q-4 3 -21 10.5t-20 10.5q-2 2 -7.5 7t-9.5 8.5t-4 4.5v322q-2 0 -58 -6.5t-67 -2.5q-5 0 -13.5 8.5t-8.5 12.5q0 -1 -1 -9t-1 -12v-14q0 -6 2 -8q2 0 31.5 -9.5t31.5 -9.5 q17 -17 21 -43l2 -8q2 -8 2 -12q0 -3 -1 -6t-1 -6q-2 -2 -2 -8q0 -2 -21 -23q-1 0 -19 -9t-22 -9v-209h-151q0 14 -7.5 83t-7.5 83q-4 4 -23.5 31t-19.5 30t-1 19t-1 22zM582 1473q0 4 8.5 12t13.5 8q17 0 25 2q8 0 21 1t16 1q5 0 32 -2t31 -2q4 -6 11.5 -29.5t7.5 -31.5 q3 -6 12.5 -41.5t9.5 -40.5q2 -11 9.5 -34.5t11.5 -29.5q0 17 8 74t12 72q2 5 10.5 21t12.5 20q2 5 8 12t12 12.5t12.5 11.5t7.5 7q12 5 51.5 12.5t51.5 7.5v180q12 0 54 -5.5t52 -8.5q6 -2 21.5 -17.5t19.5 -25.5l41 -207q9 -45 21 -61q0 10 7.5 40.5t12.5 41.5q6 7 21 23 t22 20q12 5 51.5 12.5t51.5 7.5v145q0 4 8.5 11.5t13.5 9.5h17q4 0 12.5 1t11.5 1t12 -1t13 -1h16q7 -2 23 -9.5t20 -11.5q0 -2 9 -28t10 -35q3 -3 7 -26t8.5 -55.5t6.5 -43.5q21 -129 21 -143q0 -2 1 -31t1 -39q0 -2 -1 -13.5t-1 -19.5v-22q0 -4 -8 -20.5t-13 -22.5 q-2 -2 -7 -7.5t-8.5 -9t-6.5 -4.5q-4 -4 -27 -11t-35 -9q-13 -7 -54 -15t-50 -8h-72h-74q-4 1 -11 9.5t-9 13.5q-11 11 -21 41q-6 -6 -40.5 -23.5t-41.5 -17.5q-13 -4 -63 -13.5t-62 -9.5h-75h-72q-1 4 -20 23h-9q-4 0 -7 1l-3 1q-3 0 -12 -1t-12 -1q-3 -3 -31 -13t-31 -10 h-35h-28q-5 2 -12 17.5t-7 25.5zM684 635q0 -10 2 -14q0 -3 3.5 -7t10 -9.5t7.5 -6.5q12 -4 28 -4q0 15 -3 86t-3 84q-7 49 -22 84q-5 -15 -13 -72t-8 -74l-1 -20q-1 -19 -1 -25v-22zM971 1368q0 -7 3 -41t3 -41q0 -4 8.5 -12t13.5 -8t13 8t8 12q0 7 4 41t4 41h-57z M1350 786q0 60 2 62q0 3 4 7t10 8.5t8 6.5q4 0 21.5 8.5t19.5 10.5q1 3 9.5 42t11.5 42q5 5 28.5 13.5t34.5 8.5q12 0 41 -22q3 -1 7.5 -5.5t8.5 -9.5l5 -6q0 -4 8.5 -32t11.5 -31t42 -10.5t42 -8.5q4 -1 11.5 -9t9.5 -13q0 7 7.5 31t12.5 32q3 9 28.5 32.5t34.5 29.5 q3 3 45 12.5t58 9.5h45h39q8 -2 24 -10t17 -12q3 -1 7 -8.5t8.5 -18t6.5 -14.5q1 -6 5.5 -20t10 -27.5t5.5 -14.5l1 -10q1 -10 1 -14l-1 -3q-1 -3 -1 -7v-9q-5 -9 -20.5 -24.5t-22.5 -16.5q-6 -2 -17 -2q-8 -2 -24 -2q-4 0 -14 1t-18 2t-9 1q-6 1 -22 17t-21 24v-63 q8 0 53.5 -9.5t52.5 -9.5q5 -2 20 -6.5t27 -8.5t15 -7q3 -1 6.5 -4.5t7.5 -9t6 -7.5q21 -28 21 -40q4 -7 4 -125q0 -84 -4 -84l-41 -41h-291l-43 41l-41 -41l-248 26l-12 285l-53 22q-2 0 -2 41zM1364 1262q28 0 29 4q5 2 13 9t9 11v8q0 4 1 7t1 4q0 3 -1 12t-1 10 q-2 9 -10 33t-12 31q-4 0 -11.5 -9t-7.5 -14t-5 -53t-5 -53zM1561 1577v10v10q13 53 20 62q18 43 23 43h10q3 0 8 1t8 1q6 0 20 -1l15 -1q13 0 41 -21q2 -2 8.5 -6.5t10.5 -8.5t4 -7v-31v-31q0 -10 -23 -41l-20 -20l-13 -1q-13 -1 -18 -1h-19q-8 0 -12 2q-4 0 -20.5 7.5 t-22.5 12.5q-2 2 -7 6.5t-8.5 8t-4.5 6.5zM1575 662q0 -5 3 -32t3 -32q2 5 10.5 21t12.5 20q2 5 9 13.5t11 9.5q4 4 20 12t21 8q1 0 21 -20l20 -41q2 -2 7 -8.5t9 -10.5t7 -4q6 0 30.5 9t30.5 14q-8 4 -32 29t-29 32q-8 11 -15.5 59t-7.5 66q-21 -28 -41 -43q-7 0 -44 -17.5 t-40 -23.5l-1 -12q-2 -12 -3.5 -27t-1.5 -22zM1581 1473q0 5 8.5 12.5t14.5 7.5l12 1q12 1 27 2t22 1q5 0 32 -2t32 -2q1 -3 10 -29t10 -32l41 -166q0 52 20 207q0 12 8.5 62t12.5 62q3 5 11 32t11 30q0 4 7 12t12 10q29 13 63 21q1 0 11.5 0.5t23.5 1t19 0.5t18.5 -0.5 t22 -1t10.5 -0.5q2 0 31.5 -10.5t31.5 -10.5q3 0 16.5 13.5t29.5 31.5l16 17q13 13 41 22h32h31q4 -1 11.5 -9t9.5 -13q-6 5 -32 5t-32 -5q-13 0 -41 -21q-4 0 -11 -7.5t-9 -12.5q-5 -6 -13 -22.5t-8 -20.5v-227q-12 -4 -47 -21.5t-73 -37t-46 -23.5l-22 -23q-1 -3 2.5 -18 t3.5 -17q3 0 8 -3.5t8 -2.5q2 4 19 22t22 19q3 3 15 7l27 9t20 7h22h19q22 -22 22 -23q0 -5 1 -36t1 -36q0 -8 -0.5 -25.5t-1.5 -32.5v-15q-2 -15 -10 -39.5t-12 -24.5h-250q-5 8 -38.5 25.5t-43.5 17.5q-5 0 -52 -21.5t-52 -21.5h-33h-29q-5 2 -12.5 17.5t-7.5 25.5z M1847 627q0 -23 6 -29q2 -9 8.5 -24.5t10.5 -16.5q2 -2 4 -2h8l10 2l6 5q5 4 9.5 8.5t5.5 7.5q-6 7 -21 23t-22 20q-3 0 -12.5 3t-12.5 3zM1954 1448q2 2 10 2q12 0 14 2q1 1 7 6t9 8.5t3 6.5q0 10 -7 33.5t-12 29.5q-3 -3 -11 -21.5t-11 -21.5q-2 -6 -2 -45zM2134 1540 q-2 3 31 -1q7 -1 20 -3q-75 0 -4 9q16 3 52 7l36 4q11 4 41 41q5 7 13 23t8 20q0 3 -10.5 31t-10.5 31v10v10q-25 25 -19 27q9 0 50 -39q2 -2 9.5 -33.5t6.5 -38.5q0 -35 -6 -41q0 -5 -24.5 -29t-36.5 -32q-9 -8 -43 -20q-1 0 -9 -2.5t-12 -2.5q-10 0 -12 2q-5 0 -8 3 q-69 19 -72 24zM2183 1651q0 5 1 17l1 13q1 5 9 12t12 9l13 1q13 1 19 1l14 -1q14 -1 17 -1q-33 -11 -43 -21q-4 -4 -12 -20t-8 -21q0 -3 3.5 -6.5t9.5 -9t7 -6.5q32 -8 64 -8v-21q-6 0 -41.5 4t-42.5 4q-4 0 -11.5 8t-9.5 13q0 3 -1 15.5t-1 17.5z" />
<glyph unicode="&#xaa;" horiz-adv-x="647" d="M41 1501l297 610l268 -561q0 -4 -2 -4l-180 -116l-27 100l-125 -19l-4 -2l-28 -96l-197 82q-2 4 -2 6zM309 1669l62 8l-33 82v6z" />
<glyph unicode="&#xad;" horiz-adv-x="1296" d="M41 664l14 389l1200 43l-6 -385z" />
<glyph unicode="&#xae;" d="M41 1788v4q0 8 14.5 21.5t32.5 27t32.5 36t14.5 46.5q0 19 -9 56.5t-9 58.5q27 0 70.5 -37t74.5 -37q25 0 66 30.5t57 30.5h6q4 -48 19 -74t30 -29.5t28.5 -6t14.5 -8.5q-1 -4 -8 -34t-8 -34v-8q0 -47 35 -111h2h6q2 0 16.5 8.5t16.5 8.5q16 0 33.5 -23t31 -50t33 -50 t39.5 -23h8q162 70 332 70q134 0 261.5 -40.5t232 -116t183.5 -176t123 -227.5t44 -263q0 -169 -67 -324t-179.5 -267.5t-267.5 -179.5t-324 -67q-170 0 -323.5 68t-263 182t-174 269t-64.5 323q0 273 172 501v9q0 20 -14.5 41t-31.5 36.5t-31.5 36.5t-14.5 41v9 q28 37 41 59l8 16q0 3 -3 5.5t-5 2.5h-33q-20 0 -47 -12t-43 -12h-6q-4 145 -103 186q-43 11 -49 27zM166 1831q0 -11 14.5 -24t14.5 -25q0 -19 -2 -21l-7 -14q0 -3 15 -12t32.5 -19t20.5 -14q2 -3 5.5 -14t7.5 -20t7 -9q6 0 18 12.5t19 14.5q-3 8 -11 25.5t-13.5 32.5 t-5.5 25h22v27q6 0 10.5 0.5t4.5 0t12 -8.5l8 16q6 -9 10.5 -30t12 -33t24.5 -12q47 0 47 20q0 14 -19 33t-22 30q-4 12 -11 48t-7 47q-28 -19 -70 -19q-18 0 -44 17.5t-34 17.5h-6q-9 -4 -10.5 -15.5t1 -25.5t1.5 -18q-2 -8 -23.5 -14.5t-21.5 -18.5zM344 1608q0 -4 2 -4 q3 0 3 4t-3 4q-2 0 -2 -4zM559 315h53h50q35 1 98 5t110.5 7.5t47.5 4.5l45 219l311 -227q3 0 16 12.5t19 21.5q19 22 80.5 101t78.5 104q-4 6 -4 8q-26 18 -109 84t-104 86q195 98 195 279q0 94 -33 165t-92.5 112t-133.5 61t-163 20q-62 0 -164.5 -11t-103.5 -24zM985 897 v21q20 122 27 147q2 8 14 8q34 0 65 -22.5t31 -53.5q0 -54 -40.5 -77t-96.5 -23z" />
<glyph unicode="&#xaf;" horiz-adv-x="1705" />
<glyph unicode="&#xb0;" horiz-adv-x="638" d="M60 1826q41 137 136 208q88 67 193 45q94 -20 147 -88.5t59.5 -154.5t-17.5 -175.5t-74 -155.5q-103 -110 -240 -90q-146 20 -199 150q-47 116 -5 261zM242 1788q-4 -87 63 -98q41 -7 64.5 24t33.5 76q12 71 -33 102q-38 26 -78 2q-48 -29 -50 -106z" />
<glyph unicode="&#xb1;" horiz-adv-x="1374" d="M41 211l1208 47l6 385l-1200 -43zM102 1257l31 388l381 -3l57 365l381 23l-32 -390l413 -4l-22 -385l-426 -12l-47 -451l-445 -36l66 491z" />
<glyph unicode="&#xb2;" horiz-adv-x="536" d="M41 1552q110 123 180 185q81 72 84 116q6 46 -49 58q-54 12 -111 -27q-59 -40 -77 -59l-13 151q23 30 78 62q100 62 186 45q46 -10 83 -39t51 -52l14 -24q28 -58 20 -104q-10 -52 -41 -88q-27 -37 -145 -170l166 24l-4 -168l-418 -22z" />
<glyph unicode="&#xb3;" horiz-adv-x="583" d="M41 1513q33 44 35 46v2l55 79h4l17 -10q38 -26 67 -31q6 -2 21 -2t36 7q25 6 42.5 24t17.5 41q3 16 -6 27t-21 14.5t-32.5 8t-28.5 7.5v93q21 2 55.5 21t34.5 40q0 19 -15.5 28t-35.5 9q-41 0 -113 -39q-1 -1 -9 -6t-9 -6h-2l-76 141l2 2q0 1 6.5 5.5t15 10t11.5 7.5 q6 6 26 16q93 49 178 49q74 0 136 -33l10 -6q31 -20 37 -28q3 -3 8.5 -11.5t7.5 -11.5q27 -46 27 -86q0 -73 -88 -131v-2q45 -39 58 -62q14 -24 15 -51q0 -78 -45 -135q-18 -26 -57 -57q-4 -2 -12.5 -8.5t-12.5 -8.5l-36 -18q-3 -1 -11 -4t-14 -4q-33 -8 -76 -8h-18h-29 q-40 8 -59 8q-53 9 -97 53q-2 0 -16 14z" />
<glyph unicode="&#xb5;" horiz-adv-x="1970" d="M41 39l635 1155l49 98l63 105l15 26l10 11l4 8l6 4l385 -158l3 -2q3 -1 5 -3t1 -5q-42 -98 -65 -157.5t-45 -153.5t-20 -172q5 -109 86 -135q72 -23 157 25q87 49 116 136q5 15 8 31q12 64 -2 148.5t-32.5 138.5t-51.5 139q0 6 2 6l387 184h8l9 -16q79 -195 119.5 -372 t33.5 -353q-4 -141 -66 -281.5t-170.5 -250.5t-240.5 -156q-145 -52 -360 -23q-334 44 -459 287l-238 -403q-20 6 -26 10q-271 100 -291 110z" />
<glyph unicode="&#xb7;" horiz-adv-x="434" d="M49 905q-17 47 20 97t107 75q69 25 132 7.5t75 -64.5q20 -48 -18 -98.5t-109 -75.5q-71 -24 -131.5 -6.5t-75.5 65.5z" />
<glyph unicode="&#xb9;" horiz-adv-x="339" d="M41 1919q0 5 1 34.5t1 33.5v71h12l244 27l-25 -647h-12q-127 -13 -137 -13h-16l14 490l-12 4h-70z" />
<glyph unicode="&#xbc;" horiz-adv-x="1685" d="M41 1819q0 9 1 58t1 58l2 117l18 4l410 43l-41 -1083q-14 -2 -20 -2q-209 -19 -228 -19h-30l24 820l-20 4h-117zM244 -10l198 -60l732 2067l-240 35zM846 289l342 2l-23 -293l328 14l16 285l119 10l17 252l-119 -4l55 580l-305 -9l-404 -477zM1059 555l194 254l-28 -254 h-166z" />
<glyph unicode="&#xbd;" horiz-adv-x="1746" d="M41 1819q0 9 1 58t1 58l2 117l18 4l410 43l-41 -1083q-14 -2 -20 -2q-209 -19 -228 -19h-30l24 820l-20 4h-117zM274 -10l199 -60l731 2067l-239 35zM946 770l127 -211q31 31 123 98t156 58q64 -6 55 -80q-9 -72 -133 -184q-131 -118 -281 -287l6 -178l656 37l6 262 l-260 -39q173 193 229 266q50 65 62 141q15 77 -31 162q0 2 -8.5 16t-26.5 36.5t-43 47.5t-61.5 45t-78.5 33t-97 8t-114.5 -26.5t-133.5 -73.5t-152 -131z" />
<glyph unicode="&#xbe;" horiz-adv-x="1982" d="M41 1149v2q4 5 25.5 35t25.5 35l2 2l86 123h4q1 0 13 -7.5t14 -9.5q57 -37 102 -47h33q40 0 60 8q37 9 63.5 37.5t26.5 65.5q6 25 -8.5 41.5t-33.5 22.5t-51 12t-43 10v143q30 2 85 32.5t55 59.5q0 31 -24.5 46.5t-57.5 15.5q-67 0 -172 -64q-7 -7 -29 -18h-4l-117 219 l2 2q1 1 11 8t23.5 16l19.5 13q3 3 41 22q139 78 274 78q113 0 209 -51q1 -1 8 -5t8 -5q47 -31 56 -43q8 -8 26 -35q43 -71 43 -131q0 -116 -137 -205l2 -2l-4 -2q29 -23 40.5 -33t33.5 -34t32 -50t11 -57q0 -115 -72 -209q-28 -37 -88 -86q-3 -2 -17.5 -12.5t-21.5 -14.5 q-9 -5 -55 -28q-2 -1 -16 -6.5t-21 -6.5q-47 -12 -121 -12h-27q-3 0 -22.5 1t-22.5 1q-70 10 -90 10q-82 15 -149 82q-3 0 -12.5 9t-12.5 14zM535 -10l198 -60l731 2067l-239 35zM1143 283l342 2l-23 -293l328 14l16 285l119 10l17 252l-119 -4l55 579l-305 -8l-404 -477z M1356 549l194 254l-28 -254h-166z" />
<glyph unicode="&#xbf;" horiz-adv-x="1212" d="M43 513.5q-3 95.5 29.5 185.5t103.5 176.5t176 156.5q137 79 170 111q50 52 69 101.5t7 93t-39 80.5t-72 77l5 8l487 84q7 -11 53.5 -59.5t54.5 -63.5q52 -106 70.5 -194.5t8 -162t-54 -142t-107.5 -127.5t-160 -125q-69 -53 -72 -135q1 -48 27 -79.5t66 -43.5t88 -18 t93.5 -3t83.5 0l-69 -430q-2 -15 -15.5 -24.5t-26.5 -12.5t-36 -6t-27 -4q-344 -67 -571 61q-109 62 -186 143.5t-115 169t-41 183zM375 1731q-29 87 39.5 180.5t195.5 134.5q87 28 164.5 24t136.5 -39t78 -92q29 -89 -39.5 -179.5t-195.5 -135.5q-128 -45 -237 -12.5 t-142 119.5z" />
<glyph unicode="&#xd7;" horiz-adv-x="1351" d="M41 1423l348 289l277 -297l317 297l291 -274l-313 -371l350 -381l-271 -319l-352 399l-282 -414l-357 242l328 455z" />
<glyph unicode="&#xde;" horiz-adv-x="1617" d="M41 -10l203 1990l620 60l-26 -283q135 52 282 23q140 -30 239.5 -109.5t148 -186.5t63 -235.5t-7.5 -257t-71.5 -250.5t-121.5 -217q-227 -237 -518 -194q-73 8 -145 37l-25 -275zM799 1141q-3 -80 30.5 -139.5t106.5 -73.5q49 -8 88 9.5t63 54.5t39 75.5t23 83.5 q25 132 -46 202q-55 56 -134 43q-85 -15 -132 -102q-35 -63 -38 -153z" />
<glyph unicode="&#xdf;" horiz-adv-x="1798" d="M41 -6l377 1986q0 1 1 4.5t1 4.5h8l338 53q5 3 98 10q19 2 119 2h61q27 0 99 -8q2 0 74 -12q174 -32 301 -125q43 -32 86 -78q29 -36 57 -80q1 -2 7 -12.5t7 -12.5q59 -118 74 -208q8 -43 8 -121v-47q0 -23 -2 -29q-24 -207 -166 -371v-10q80 -119 80 -283 q0 -51 -14 -137q-33 -164 -139 -286t-263 -179q-118 -53 -231 -82q-130 -43 -180 -49q-19 -2 -27 -2h-2v2l82 428q2 1 18 18t33 35.5t19 20.5q25 22 41 72.5t16 89.5q0 53 -32.5 94.5t-86.5 56.5q-18 6 -57 6h-27q-11 0 -14 -10q-4 -12 -4 -33q-3 -16 -8 -45t-9 -49.5 t-4 -21.5l-4 -13l-108 -555zM866 1210q6 -2 8 -2q1 0 10 -0.5t20 -1t16 -0.5q88 0 153.5 45t65.5 127q0 66 -35 101q-43 49 -94 63q-23 8 -92 23h-3q-8 0 -8 -11l-41 -327v-17z" />
<glyph unicode="&#xf7;" horiz-adv-x="1308" d="M41 776l27 387l1200 4l-19 -385zM489 414q-17 47 20 97t107 75q69 25 132 7t75 -65q20 -48 -18 -98.5t-109 -75.5q-71 -24 -131.5 -6t-75.5 66zM489 1397q-17 47 20 97t107 75q69 25 132 7t75 -65q20 -48 -18 -98.5t-109 -75.5q-71 -24 -131.5 -6t-75.5 66z" />
<glyph unicode="&#xfe;" horiz-adv-x="1163" d="M41 -10l203 1990l354 60l-47 -500q96 35 211 14q111 -24 189.5 -87t116.5 -147.5t49.5 -186t-6 -203t-57 -198t-96.5 -171.5q-178 -187 -407 -155q-39 4 -105 24l-30 -338zM508 1049q-2 -65 24 -111.5t84 -56.5q39 -6 69.5 7.5t49.5 43t30.5 59.5t18.5 66q21 109 -41 165 q-49 44 -114 25q-71 -20 -102 -101q-17 -43 -19 -97z" />
<glyph unicode="&#x2000;" horiz-adv-x="1102" />
<glyph unicode="&#x2001;" horiz-adv-x="2204" />
<glyph unicode="&#x2002;" horiz-adv-x="1102" />
<glyph unicode="&#x2003;" horiz-adv-x="2204" />
<glyph unicode="&#x2004;" horiz-adv-x="734" />
<glyph unicode="&#x2005;" horiz-adv-x="551" />
<glyph unicode="&#x2006;" horiz-adv-x="367" />
<glyph unicode="&#x2007;" horiz-adv-x="367" />
<glyph unicode="&#x2008;" horiz-adv-x="275" />
<glyph unicode="&#x2009;" horiz-adv-x="440" />
<glyph unicode="&#x200a;" horiz-adv-x="122" />
<glyph unicode="&#x2010;" horiz-adv-x="1296" d="M41 664l14 389l1200 43l-6 -385z" />
<glyph unicode="&#x2011;" horiz-adv-x="1296" d="M41 664l14 389l1200 43l-6 -385z" />
<glyph unicode="&#x2012;" horiz-adv-x="1296" d="M41 664l14 389l1200 43l-6 -385z" />
<glyph unicode="&#x2013;" horiz-adv-x="1503" d="M41 610l18 492l1301 47l-2 -107l104 5l-6 -488l-1313 -51l4 106zM94 664l1209 47l6 385l-1200 -43z" />
<glyph unicode="&#x2014;" horiz-adv-x="2056" d="M41 610l18 492l1854 47l-2 -107l104 5l-6 -488l-1866 -51l4 106zM94 664l1761 47l7 385l-1753 -43z" />
<glyph unicode="&#x2018;" horiz-adv-x="432" d="M41 1661l2 4q0 17 2 27q6 23 182 344l111 2l-35 -215q2 0 4 -2q61 -16 76 -66q17 -47 -20 -97t-107 -75q-69 -25 -132 -7.5t-75 64.5q-4 12 -4 21h-4z" />
<glyph unicode="&#x2019;" horiz-adv-x="432" d="M49 1851q-17 47 20 97t107 75q69 25 132 7.5t75 -64.5q4 -12 4 -20h4l-2 -4q0 -17 -2 -27q-6 -23 -182 -344l-111 -2l35 215q-2 0 -4 2q-61 16 -76 65z" />
<glyph unicode="&#x201a;" horiz-adv-x="378" d="M41 -72l70 492l227 -74l-186 -416z" />
<glyph unicode="&#x201c;" horiz-adv-x="720" d="M41 1661l2 4q0 17 2 27q6 23 182 344l111 2l-35 -215q2 0 4 -2q61 -16 76 -66q17 -47 -20 -97t-107 -75q-69 -25 -132 -7.5t-75 64.5q-4 12 -4 21h-4zM330 1464l2 4q0 17 2 27q6 23 182 344l111 2l-35 -215q2 0 4 -2q61 -16 76 -65q17 -47 -20 -97.5t-107 -75.5 q-69 -25 -132 -7t-75 65q-4 12 -4 20h-4z" />
<glyph unicode="&#x201d;" horiz-adv-x="720" d="M49 1851q-17 47 20 97t107 75q69 25 132 7.5t75 -64.5q4 -12 4 -20h4l-2 -4q0 -17 -2 -27q-6 -23 -182 -344l-111 -2l35 215q-2 0 -4 2q-61 16 -76 65zM338 1655q-17 47 20 97t107 75q69 25 132 7t75 -65q4 -12 4 -20h4l-2 -4q0 -17 -2 -27q-6 -23 -182 -344l-111 -2 l35 215q-2 0 -4 2q-61 16 -76 66z" />
<glyph unicode="&#x201e;" horiz-adv-x="665" d="M41 -72l70 492l227 -74l-186 -416zM328 -72l69 492l228 -74l-187 -416z" />
<glyph unicode="&#x2022;" d="M41 1788v4q0 8 14.5 21.5t32.5 27t32.5 36t14.5 46.5q0 19 -9 56.5t-9 58.5q27 0 70.5 -37t74.5 -37q25 0 66 30.5t57 30.5h6q4 -48 19 -74t30 -29.5t28.5 -6t14.5 -8.5q-1 -4 -8 -34t-8 -34v-8q0 -47 35 -111h2h6q2 0 16.5 8.5t16.5 8.5q16 0 33.5 -23t31 -50t33 -50 t39.5 -23h8q162 70 332 70q134 0 261.5 -40.5t232 -116t183.5 -176t123 -227.5t44 -263q0 -169 -67 -324t-179.5 -267.5t-267.5 -179.5t-324 -67q-170 0 -323.5 68t-263 182t-174 269t-64.5 323q0 273 172 501v9q0 20 -14.5 41t-31.5 36.5t-31.5 36.5t-14.5 41v9 q28 37 41 59l8 16q0 3 -3 5.5t-5 2.5h-33q-20 0 -47 -12t-43 -12h-6q-4 145 -103 186q-43 11 -49 27zM166 1831q0 -11 14.5 -24t14.5 -25q0 -19 -2 -21l-7 -14q0 -3 15 -12t32.5 -19t20.5 -14q2 -3 5.5 -14t7.5 -20t7 -9q6 0 18 12.5t19 14.5q-3 8 -11 25.5t-13.5 32.5 t-5.5 25h22v27q6 0 10.5 0.5t4.5 0t12 -8.5l8 16q6 -9 10.5 -30t12 -33t24.5 -12q47 0 47 20q0 14 -19 33t-22 30q-4 12 -11 48t-7 47q-28 -19 -70 -19q-18 0 -44 17.5t-34 17.5h-6q-9 -4 -10.5 -15.5t1 -25.5t1.5 -18q-2 -8 -23.5 -14.5t-21.5 -18.5zM344 1608q0 -4 2 -4 q3 0 3 4t-3 4q-2 0 -2 -4z" />
<glyph unicode="&#x2026;" horiz-adv-x="1302" d="M49 66q-17 47 20 97t107 75q69 25 132 7t75 -65q20 -48 -18 -98.5t-109 -75.5q-71 -24 -131.5 -6t-75.5 66zM483 66q-17 47 20 97t107 75q69 25 132 7t75 -65q20 -48 -18 -98.5t-109 -75.5q-71 -24 -131.5 -6t-75.5 66zM918 66q-17 47 19.5 97t106.5 75q69 25 132 7 t75 -65q20 -48 -18 -98.5t-109 -75.5q-71 -24 -131 -6t-75 66z" />
<glyph unicode="&#x202f;" horiz-adv-x="440" />
<glyph unicode="&#x205f;" horiz-adv-x="551" />
<glyph unicode="&#x20ac;" horiz-adv-x="1421" d="M51 645q-38 208 60.5 491.5t250.5 456.5q79 86 178 147.5t207 88t212.5 17.5t201.5 -68.5t166 -165.5q1 -2 13 -19.5t22 -35t16.5 -37t-4.5 -25.5l-391 -256q-2 -1 -11 10.5t-22 29t-33.5 34.5t-43 27.5t-52.5 6.5t-61 -26q-57 -43 -98 -107l235 -10l-20 -268l-267 -10 q12 -50 38 -85.5t68 -51t94.5 -6t122.5 55.5t146 128l197 -385q5 -10 2 -19q-61 -74 -119 -135q0 -4 -4 -6q-119 -131 -281 -182t-339 -23q-190 31 -321.5 140.5t-162.5 287.5z" />
<glyph unicode="&#x2122;" horiz-adv-x="1300" d="M41 1858l111 4l-56 -447l187 15l47 438l114 6l7 176l-385 -16zM477 1544l271 508l118 -190h4l125 188l265 -514l-185 -123h-6l-111 168l-116 -151l-103 151l-92 -164z" />
<glyph unicode="&#x25fc;" horiz-adv-x="2088" d="M0 0v2089h2089v-2089h-2089z" />
</font>
</defs>
</svg>
